%TF.GenerationSoftware,KiCad,Pcbnew,9.0.0*%
%TF.CreationDate,2025-11-19T14:43:49-05:00*%
%TF.ProjectId,ECE_362_final_proj,4543455f-3336-4325-9f66-696e616c5f70,rev?*%
%TF.SameCoordinates,Original*%
%TF.FileFunction,Legend,Bot*%
%TF.FilePolarity,Positive*%
%FSLAX46Y46*%
G04 Gerber Fmt 4.6, Leading zero omitted, Abs format (unit mm)*
G04 Created by KiCad (PCBNEW 9.0.0) date 2025-11-19 14:43:49*
%MOMM*%
%LPD*%
G01*
G04 APERTURE LIST*
%ADD10C,0.150000*%
%ADD11C,0.120000*%
%ADD12C,0.254000*%
%ADD13C,0.000000*%
%ADD14C,0.600000*%
G04 APERTURE END LIST*
D10*
X27974533Y-1076419D02*
X27974533Y-1790704D01*
X27974533Y-1790704D02*
X28022152Y-1933561D01*
X28022152Y-1933561D02*
X28117390Y-2028800D01*
X28117390Y-2028800D02*
X28260247Y-2076419D01*
X28260247Y-2076419D02*
X28355485Y-2076419D01*
X27069771Y-1409752D02*
X27069771Y-2076419D01*
X27307866Y-1028800D02*
X27545961Y-1743085D01*
X27545961Y-1743085D02*
X26926914Y-1743085D01*
X-23673761Y-69596009D02*
X-23816618Y-69643628D01*
X-23816618Y-69643628D02*
X-23864237Y-69691247D01*
X-23864237Y-69691247D02*
X-23911856Y-69786485D01*
X-23911856Y-69786485D02*
X-23911856Y-69929342D01*
X-23911856Y-69929342D02*
X-23864237Y-70024580D01*
X-23864237Y-70024580D02*
X-23816618Y-70072200D01*
X-23816618Y-70072200D02*
X-23721380Y-70119819D01*
X-23721380Y-70119819D02*
X-23340428Y-70119819D01*
X-23340428Y-70119819D02*
X-23340428Y-69119819D01*
X-23340428Y-69119819D02*
X-23673761Y-69119819D01*
X-23673761Y-69119819D02*
X-23768999Y-69167438D01*
X-23768999Y-69167438D02*
X-23816618Y-69215057D01*
X-23816618Y-69215057D02*
X-23864237Y-69310295D01*
X-23864237Y-69310295D02*
X-23864237Y-69405533D01*
X-23864237Y-69405533D02*
X-23816618Y-69500771D01*
X-23816618Y-69500771D02*
X-23768999Y-69548390D01*
X-23768999Y-69548390D02*
X-23673761Y-69596009D01*
X-23673761Y-69596009D02*
X-23340428Y-69596009D01*
X-24292809Y-69834104D02*
X-24768999Y-69834104D01*
X-24197571Y-70119819D02*
X-24530904Y-69119819D01*
X-24530904Y-69119819D02*
X-24864237Y-70119819D01*
X-25054714Y-69119819D02*
X-25626142Y-69119819D01*
X-25340428Y-70119819D02*
X-25340428Y-69119819D01*
X-25816619Y-69119819D02*
X-26388047Y-69119819D01*
X-26102333Y-70119819D02*
X-26102333Y-69119819D01*
X-26626143Y-69119819D02*
X-27245190Y-69119819D01*
X-27245190Y-69119819D02*
X-26911857Y-69500771D01*
X-26911857Y-69500771D02*
X-27054714Y-69500771D01*
X-27054714Y-69500771D02*
X-27149952Y-69548390D01*
X-27149952Y-69548390D02*
X-27197571Y-69596009D01*
X-27197571Y-69596009D02*
X-27245190Y-69691247D01*
X-27245190Y-69691247D02*
X-27245190Y-69929342D01*
X-27245190Y-69929342D02*
X-27197571Y-70024580D01*
X-27197571Y-70024580D02*
X-27149952Y-70072200D01*
X-27149952Y-70072200D02*
X-27054714Y-70119819D01*
X-27054714Y-70119819D02*
X-26769000Y-70119819D01*
X-26769000Y-70119819D02*
X-26673762Y-70072200D01*
X-26673762Y-70072200D02*
X-26626143Y-70024580D01*
X10265333Y-931819D02*
X10265333Y-1646104D01*
X10265333Y-1646104D02*
X10312952Y-1788961D01*
X10312952Y-1788961D02*
X10408190Y-1884200D01*
X10408190Y-1884200D02*
X10551047Y-1931819D01*
X10551047Y-1931819D02*
X10646285Y-1931819D01*
X9884380Y-931819D02*
X9265333Y-931819D01*
X9265333Y-931819D02*
X9598666Y-1312771D01*
X9598666Y-1312771D02*
X9455809Y-1312771D01*
X9455809Y-1312771D02*
X9360571Y-1360390D01*
X9360571Y-1360390D02*
X9312952Y-1408009D01*
X9312952Y-1408009D02*
X9265333Y-1503247D01*
X9265333Y-1503247D02*
X9265333Y-1741342D01*
X9265333Y-1741342D02*
X9312952Y-1836580D01*
X9312952Y-1836580D02*
X9360571Y-1884200D01*
X9360571Y-1884200D02*
X9455809Y-1931819D01*
X9455809Y-1931819D02*
X9741523Y-1931819D01*
X9741523Y-1931819D02*
X9836761Y-1884200D01*
X9836761Y-1884200D02*
X9884380Y-1836580D01*
X-19908285Y-25125009D02*
X-20051142Y-25172628D01*
X-20051142Y-25172628D02*
X-20098761Y-25220247D01*
X-20098761Y-25220247D02*
X-20146380Y-25315485D01*
X-20146380Y-25315485D02*
X-20146380Y-25458342D01*
X-20146380Y-25458342D02*
X-20098761Y-25553580D01*
X-20098761Y-25553580D02*
X-20051142Y-25601200D01*
X-20051142Y-25601200D02*
X-19955904Y-25648819D01*
X-19955904Y-25648819D02*
X-19574952Y-25648819D01*
X-19574952Y-25648819D02*
X-19574952Y-24648819D01*
X-19574952Y-24648819D02*
X-19908285Y-24648819D01*
X-19908285Y-24648819D02*
X-20003523Y-24696438D01*
X-20003523Y-24696438D02*
X-20051142Y-24744057D01*
X-20051142Y-24744057D02*
X-20098761Y-24839295D01*
X-20098761Y-24839295D02*
X-20098761Y-24934533D01*
X-20098761Y-24934533D02*
X-20051142Y-25029771D01*
X-20051142Y-25029771D02*
X-20003523Y-25077390D01*
X-20003523Y-25077390D02*
X-19908285Y-25125009D01*
X-19908285Y-25125009D02*
X-19574952Y-25125009D01*
X-20432095Y-24648819D02*
X-21003523Y-24648819D01*
X-20717809Y-25648819D02*
X-20717809Y-24648819D01*
X-21289238Y-24744057D02*
X-21336857Y-24696438D01*
X-21336857Y-24696438D02*
X-21432095Y-24648819D01*
X-21432095Y-24648819D02*
X-21670190Y-24648819D01*
X-21670190Y-24648819D02*
X-21765428Y-24696438D01*
X-21765428Y-24696438D02*
X-21813047Y-24744057D01*
X-21813047Y-24744057D02*
X-21860666Y-24839295D01*
X-21860666Y-24839295D02*
X-21860666Y-24934533D01*
X-21860666Y-24934533D02*
X-21813047Y-25077390D01*
X-21813047Y-25077390D02*
X-21241619Y-25648819D01*
X-21241619Y-25648819D02*
X-21860666Y-25648819D01*
D11*
%TO.C,J4*%
X26331200Y-2951600D02*
X26331200Y-4281600D01*
X26331200Y-5551600D02*
X26331200Y-74191600D01*
X27661200Y-2951600D02*
X26331200Y-2951600D01*
X28991200Y-5551600D02*
X26331200Y-5551600D01*
X28991200Y-5551600D02*
X28991200Y-74191600D01*
X28991200Y-74191600D02*
X26331200Y-74191600D01*
D12*
%TO.C,BATT3*%
X-51685000Y-31246000D02*
X1147000Y-31246000D01*
X-51685000Y-43883000D02*
X1147000Y-43883000D01*
X-51685000Y-57618000D02*
X1147000Y-57618000D01*
X-51685000Y-68838000D02*
X-51685000Y-31246000D01*
X-50288000Y-60075000D02*
X-49018000Y-66552000D01*
X-50288000Y-66933000D02*
X-50288000Y-60075000D01*
X-49018000Y-60710000D02*
X-47494000Y-66044000D01*
X-49018000Y-66552000D02*
X-49018000Y-60710000D01*
X-48764000Y-33532000D02*
X-47494000Y-40009000D01*
X-48764000Y-40390000D02*
X-48764000Y-33532000D01*
X-47494000Y-34167000D02*
X-45970000Y-39501000D01*
X-47494000Y-40009000D02*
X-47494000Y-34167000D01*
X-47494000Y-61472000D02*
X-46097000Y-65409000D01*
X-47494000Y-66044000D02*
X-47494000Y-61472000D01*
X-46097000Y-65409000D02*
X-46097000Y-61853000D01*
X-45970000Y-34929000D02*
X-44573000Y-38866000D01*
X-45970000Y-39501000D02*
X-45970000Y-34929000D01*
X-44573000Y-38866000D02*
X-44573000Y-35310000D01*
X-4441000Y-48518000D02*
X-4441000Y-52074000D01*
X-3044000Y-47883000D02*
X-3044000Y-52455000D01*
X-3044000Y-52455000D02*
X-4441000Y-48518000D01*
X-1520000Y-47375000D02*
X-1520000Y-53217000D01*
X-1520000Y-53217000D02*
X-3044000Y-47883000D01*
X-250000Y-46994000D02*
X-250000Y-53852000D01*
X-250000Y-53852000D02*
X-1520000Y-47375000D01*
X948500Y-52963000D02*
X948500Y-40517000D01*
X1147000Y-31246000D02*
X1147000Y-68838000D01*
X1147000Y-68838000D02*
X-51685000Y-68838000D01*
D13*
G36*
X-42668000Y-50296000D02*
G01*
X-44827000Y-50296000D01*
X-44827000Y-49915000D01*
X-42668000Y-49915000D01*
X-42668000Y-50296000D01*
G37*
G36*
X-42287000Y-63758000D02*
G01*
X-44446000Y-63758000D01*
X-44446000Y-63377000D01*
X-42287000Y-63377000D01*
X-42287000Y-63758000D01*
G37*
G36*
X-43557000Y-51185000D02*
G01*
X-43938000Y-51185000D01*
X-43938000Y-49026000D01*
X-43557000Y-49026000D01*
X-43557000Y-51185000D01*
G37*
G36*
X-41017000Y-36961000D02*
G01*
X-43176000Y-36961000D01*
X-43176000Y-36580000D01*
X-41017000Y-36580000D01*
X-41017000Y-36961000D01*
G37*
G36*
X-7489000Y-63504000D02*
G01*
X-9648000Y-63504000D01*
X-9648000Y-63123000D01*
X-7489000Y-63123000D01*
X-7489000Y-63504000D01*
G37*
G36*
X-7108000Y-37850000D02*
G01*
X-9267000Y-37850000D01*
X-9267000Y-37469000D01*
X-7108000Y-37469000D01*
X-7108000Y-37850000D01*
G37*
G36*
X-6854000Y-50042000D02*
G01*
X-9013000Y-50042000D01*
X-9013000Y-49661000D01*
X-6854000Y-49661000D01*
X-6854000Y-50042000D01*
G37*
G36*
X-8378000Y-64393000D02*
G01*
X-8759000Y-64393000D01*
X-8759000Y-62234000D01*
X-8378000Y-62234000D01*
X-8378000Y-64393000D01*
G37*
G36*
X-7997000Y-38739000D02*
G01*
X-8378000Y-38739000D01*
X-8378000Y-36580000D01*
X-7997000Y-36580000D01*
X-7997000Y-38739000D01*
G37*
D11*
%TO.C,J3*%
X8602000Y-2917000D02*
X8602000Y-4247000D01*
X8602000Y-5517000D02*
X8602000Y-74157000D01*
X9932000Y-2917000D02*
X8602000Y-2917000D01*
X11262000Y-5517000D02*
X8602000Y-5517000D01*
X11262000Y-5517000D02*
X11262000Y-74157000D01*
X11262000Y-74157000D02*
X8602000Y-74157000D01*
D12*
%TO.C,BT2*%
X-47194000Y233000D02*
X5806000Y233000D01*
X-47194000Y-24367000D02*
X-47194000Y233000D01*
D14*
X-4844000Y-5715500D02*
X-1844000Y-5715500D01*
X-4844000Y-18417000D02*
X-1844000Y-18417000D01*
X-3412000Y-4217000D02*
X-3412000Y-7217000D01*
D12*
X5806000Y233000D02*
X5806000Y-24367000D01*
X5806000Y-24367000D02*
X-47144000Y-24367000D01*
%TD*%
M02*
