M48
; DRILL file {KiCad 9.0.0} date 2025-11-19T14:43:53-0500
; FORMAT={-:-/ absolute / inch / decimal}
; #@! TF.CreationDate,2025-11-19T14:43:53-05:00
; #@! TF.GenerationSoftware,Kicad,Pcbnew,9.0.0
; #@! TF.FileFunction,Plated,1,2,PTH
FMAT,2
INCH
; #@! TA.AperFunction,Plated,PTH,ViaDrill
T1C0.0118
; #@! TA.AperFunction,Plated,PTH,ComponentDrill
T2C0.0300
; #@! TA.AperFunction,Plated,PTH,ComponentDrill
T3C0.0315
; #@! TA.AperFunction,Plated,PTH,ComponentDrill
T4C0.0394
; #@! TA.AperFunction,Plated,PTH,ComponentDrill
T5C0.0433
; #@! TA.AperFunction,Plated,PTH,ComponentDrill
T6C0.0472
; #@! TA.AperFunction,Plated,PTH,ComponentDrill
T7C0.0512
; #@! TA.AperFunction,Plated,PTH,ComponentDrill
T8C0.0551
; #@! TA.AperFunction,Plated,PTH,ComponentDrill
T9C0.0591
%
G90
G05
T1
X0.8002Y-0.3648
X0.8754Y-0.3648
X0.9955Y-0.3168
T2
X0.2505Y-1.5694
X0.2505Y-1.6694
X0.2505Y-1.7694
X0.2505Y-1.8694
X0.2505Y-1.9694
X0.2505Y-2.0694
X0.2505Y-2.1694
X0.2505Y-2.2694
X0.2505Y-2.3694
T3
X0.5506Y-0.1002
X0.5518Y-0.2606
T4
X0.391Y-0.1672
X0.391Y-0.2672
X0.391Y-0.3672
X0.391Y-0.4672
X0.391Y-0.5672
X0.391Y-0.6672
X0.391Y-0.7672
X0.391Y-0.8672
X0.391Y-0.9672
X0.391Y-1.0672
X0.391Y-1.1672
X0.391Y-1.2672
X0.391Y-1.3672
X0.391Y-1.4672
X0.391Y-1.5672
X0.391Y-1.6672
X0.391Y-1.7672
X0.391Y-1.8672
X0.391Y-1.9672
X0.391Y-2.0672
X0.391Y-2.1672
X0.391Y-2.2672
X0.391Y-2.3672
X0.391Y-2.4672
X0.391Y-2.5672
X0.391Y-2.6672
X0.391Y-2.7672
X0.391Y-2.8672
X1.089Y-0.1686
X1.089Y-0.2686
X1.089Y-0.3686
X1.089Y-0.4686
X1.089Y-0.5686
X1.089Y-0.6686
X1.089Y-0.7686
X1.089Y-0.8686
X1.089Y-0.9686
X1.089Y-1.0686
X1.089Y-1.1686
X1.089Y-1.2686
X1.089Y-1.3686
X1.089Y-1.4686
X1.089Y-1.5686
X1.089Y-1.6686
X1.089Y-1.7686
X1.089Y-1.8686
X1.089Y-1.9686
X1.089Y-2.0686
X1.089Y-2.1686
X1.089Y-2.2686
X1.089Y-2.3686
X1.089Y-2.4686
X1.089Y-2.5686
X1.089Y-2.6686
X1.089Y-2.7686
X1.089Y-2.8686
T5
X-0.109Y-1.0066
X-0.109Y-1.1365
X-0.009Y-1.0066
X-0.009Y-1.1365
X0.091Y-1.0066
X0.091Y-1.1365
T6
X0.5101Y-0.3755
X0.5101Y-0.6314
X0.5109Y-0.72
X0.5109Y-0.9759
X0.6872Y-0.3755
X0.6872Y-0.6314
X0.688Y-0.72
X0.688Y-0.9759
T7
X0.6502Y-1.7369
X0.6502Y-2.3078
X0.6534Y-1.0656
X0.6534Y-1.6365
X0.7502Y-1.7369
X0.7534Y-1.0656
X0.8502Y-1.7369
X0.8502Y-2.3078
X0.8534Y-1.0656
X0.8534Y-1.6365
T8
X-0.065Y-1.4702
X-0.065Y-1.9702
T9
X0.1164Y-0.2251
X0.1164Y-0.7251
X0.2097Y-0.2251
X0.2097Y-0.7251
T9
G00X0.5337Y-2.0026
M15
G01X0.5337Y-2.0617
M16
G05
G00X0.5369Y-1.3314
M15
G01X0.5369Y-1.3904
M16
G05
G00X0.9668Y-2.0026
M15
G01X0.9668Y-2.0617
M16
G05
G00X0.9699Y-1.3314
M15
G01X0.9699Y-1.3904
M16
G05
M30
