%TF.GenerationSoftware,KiCad,Pcbnew,9.0.0*%
%TF.CreationDate,2025-11-19T14:43:49-05:00*%
%TF.ProjectId,ECE_362_final_proj,4543455f-3336-4325-9f66-696e616c5f70,rev?*%
%TF.SameCoordinates,Original*%
%TF.FileFunction,Soldermask,Bot*%
%TF.FilePolarity,Negative*%
%FSLAX46Y46*%
G04 Gerber Fmt 4.6, Leading zero omitted, Abs format (unit mm)*
G04 Created by KiCad (PCBNEW 9.0.0) date 2025-11-19 14:43:49*
%MOMM*%
%LPD*%
G01*
G04 APERTURE LIST*
%ADD10O,2.300000X4.000000*%
%ADD11C,1.800000*%
%ADD12C,2.000000*%
%ADD13C,3.500000*%
%ADD14R,1.350000X1.350000*%
%ADD15R,1.524000X1.524000*%
%ADD16C,1.524000*%
%ADD17C,1.700000*%
%ADD18R,1.700000X1.700000*%
%ADD19O,1.700000X1.700000*%
G04 APERTURE END LIST*
D10*
%TO.C,SW3*%
X13556000Y-51617000D03*
X24556000Y-51617000D03*
D11*
X21596000Y-44117000D03*
X16516000Y-44117000D03*
X19056000Y-44117000D03*
X21596000Y-58617000D03*
X16516000Y-58617000D03*
%TD*%
D10*
%TO.C,SW1*%
X13636000Y-34567000D03*
X24636000Y-34567000D03*
D11*
X21676000Y-27067000D03*
X16596000Y-27067000D03*
X19136000Y-27067000D03*
X21676000Y-41567000D03*
X16596000Y-41567000D03*
%TD*%
%TO.C,SW2*%
X12956000Y-16037000D03*
X12956000Y-9537000D03*
X17456000Y-16037000D03*
X17456000Y-9537000D03*
%TD*%
D12*
%TO.C,BT1*%
X5326000Y-5717000D03*
X5326000Y-18417000D03*
%TD*%
D13*
%TO.C,*%
X-55544000Y-3407000D03*
%TD*%
D14*
%TO.C,J1*%
X13986000Y-2545375D03*
%TD*%
D11*
%TO.C,SW4*%
X12976000Y-24787000D03*
X12976000Y-18287000D03*
X17476000Y-24787000D03*
X17476000Y-18287000D03*
%TD*%
D13*
%TO.C,U2*%
X4863000Y-67073000D03*
X4863000Y-32973000D03*
X-56337000Y-67073000D03*
X-56337000Y-32973000D03*
D15*
X6363000Y-60183000D03*
D16*
X6363000Y-57643000D03*
X6363000Y-55103000D03*
X6363000Y-52563000D03*
X6363000Y-50023000D03*
X6363000Y-47483000D03*
X6363000Y-44943000D03*
X6363000Y-42403000D03*
X6363000Y-39863000D03*
%TD*%
D14*
%TO.C,J2*%
X14016000Y-6618400D03*
%TD*%
D17*
%TO.C,U_Switch*%
X-2768000Y-25566800D03*
X-228000Y-25566800D03*
X2312000Y-25566800D03*
X-2768000Y-28866800D03*
X-228000Y-28866800D03*
X2312000Y-28866800D03*
%TD*%
D18*
%TO.C,J4*%
X27661200Y-4281600D03*
D19*
X27661200Y-6821600D03*
X27661200Y-9361600D03*
X27661200Y-11901600D03*
X27661200Y-14441600D03*
X27661200Y-16981600D03*
X27661200Y-19521600D03*
X27661200Y-22061600D03*
X27661200Y-24601600D03*
X27661200Y-27141600D03*
X27661200Y-29681600D03*
X27661200Y-32221600D03*
X27661200Y-34761600D03*
X27661200Y-37301600D03*
X27661200Y-39841600D03*
X27661200Y-42381600D03*
X27661200Y-44921600D03*
X27661200Y-47461600D03*
X27661200Y-50001600D03*
X27661200Y-52541600D03*
X27661200Y-55081600D03*
X27661200Y-57621600D03*
X27661200Y-60161600D03*
X27661200Y-62701600D03*
X27661200Y-65241600D03*
X27661200Y-67781600D03*
X27661200Y-70321600D03*
X27661200Y-72861600D03*
%TD*%
D12*
%TO.C,BATT3*%
X-1651500Y-37342000D03*
X-1651500Y-50042000D03*
%TD*%
D18*
%TO.C,J3*%
X9932000Y-4247000D03*
D19*
X9932000Y-6787000D03*
X9932000Y-9327000D03*
X9932000Y-11867000D03*
X9932000Y-14407000D03*
X9932000Y-16947000D03*
X9932000Y-19487000D03*
X9932000Y-22027000D03*
X9932000Y-24567000D03*
X9932000Y-27107000D03*
X9932000Y-29647000D03*
X9932000Y-32187000D03*
X9932000Y-34727000D03*
X9932000Y-37267000D03*
X9932000Y-39807000D03*
X9932000Y-42347000D03*
X9932000Y-44887000D03*
X9932000Y-47427000D03*
X9932000Y-49967000D03*
X9932000Y-52507000D03*
X9932000Y-55047000D03*
X9932000Y-57587000D03*
X9932000Y-60127000D03*
X9932000Y-62667000D03*
X9932000Y-65207000D03*
X9932000Y-67747000D03*
X9932000Y-70287000D03*
X9932000Y-72827000D03*
%TD*%
D12*
%TO.C,BT2*%
X2956000Y-18417000D03*
X2956000Y-5717000D03*
%TD*%
M02*
