%TF.GenerationSoftware,KiCad,Pcbnew,9.0.0*%
%TF.CreationDate,2025-11-19T14:43:49-05:00*%
%TF.ProjectId,ECE_362_final_proj,4543455f-3336-4325-9f66-696e616c5f70,rev?*%
%TF.SameCoordinates,Original*%
%TF.FileFunction,Copper,L2,Bot*%
%TF.FilePolarity,Positive*%
%FSLAX46Y46*%
G04 Gerber Fmt 4.6, Leading zero omitted, Abs format (unit mm)*
G04 Created by KiCad (PCBNEW 9.0.0) date 2025-11-19 14:43:49*
%MOMM*%
%LPD*%
G01*
G04 APERTURE LIST*
%TA.AperFunction,ComponentPad*%
%ADD10O,2.300000X4.000000*%
%TD*%
%TA.AperFunction,ComponentPad*%
%ADD11C,1.800000*%
%TD*%
%TA.AperFunction,ComponentPad*%
%ADD12C,2.000000*%
%TD*%
%TA.AperFunction,ComponentPad*%
%ADD13R,1.350000X1.350000*%
%TD*%
%TA.AperFunction,ComponentPad*%
%ADD14R,1.524000X1.524000*%
%TD*%
%TA.AperFunction,ComponentPad*%
%ADD15C,1.524000*%
%TD*%
%TA.AperFunction,ComponentPad*%
%ADD16C,1.700000*%
%TD*%
%TA.AperFunction,ComponentPad*%
%ADD17R,1.700000X1.700000*%
%TD*%
%TA.AperFunction,ComponentPad*%
%ADD18O,1.700000X1.700000*%
%TD*%
%TA.AperFunction,ViaPad*%
%ADD19C,0.600000*%
%TD*%
%TA.AperFunction,Conductor*%
%ADD20C,0.500000*%
%TD*%
%TA.AperFunction,Conductor*%
%ADD21C,0.200000*%
%TD*%
G04 APERTURE END LIST*
D10*
%TO.P,SW3,6,6*%
%TO.N,unconnected-(SW3-Pad6)*%
X13556000Y-51617000D03*
%TO.P,SW3,7,7*%
%TO.N,unconnected-(SW3-Pad7)*%
X24556000Y-51617000D03*
D11*
%TO.P,SW3,A,A*%
%TO.N,/GPIO8*%
X21596000Y-44117000D03*
%TO.P,SW3,B,B*%
%TO.N,/GPIO9*%
X16516000Y-44117000D03*
%TO.P,SW3,C,C*%
%TO.N,GND*%
X19056000Y-44117000D03*
%TO.P,SW3,D,D*%
%TO.N,/GPIO10*%
X21596000Y-58617000D03*
%TO.P,SW3,E,E*%
%TO.N,GND*%
X16516000Y-58617000D03*
%TD*%
D10*
%TO.P,SW1,6,6*%
%TO.N,unconnected-(SW1-Pad6)*%
X13636000Y-34567000D03*
%TO.P,SW1,7,7*%
%TO.N,unconnected-(SW1-Pad7)*%
X24636000Y-34567000D03*
D11*
%TO.P,SW1,A,A*%
%TO.N,/GPIO5*%
X21676000Y-27067000D03*
%TO.P,SW1,B,B*%
%TO.N,/GPIO6*%
X16596000Y-27067000D03*
%TO.P,SW1,C,C*%
%TO.N,GND*%
X19136000Y-27067000D03*
%TO.P,SW1,D,D*%
%TO.N,/GPIO7*%
X21676000Y-41567000D03*
%TO.P,SW1,E,E*%
%TO.N,GND*%
X16596000Y-41567000D03*
%TD*%
%TO.P,SW2,1,1*%
%TO.N,/GPIO3*%
X12956000Y-16037000D03*
%TO.P,SW2,2,2*%
%TO.N,unconnected-(SW2-Pad2)*%
X12956000Y-9537000D03*
%TO.P,SW2,3,K*%
%TO.N,Net-(SW2-K)*%
X17456000Y-16037000D03*
%TO.P,SW2,4,A*%
%TO.N,+3.3V*%
X17456000Y-9537000D03*
%TD*%
D12*
%TO.P,BT1,1*%
%TO.N,BT1_GND*%
X5326000Y-5717000D03*
%TO.P,BT1,2*%
%TO.N,BT1+*%
X5326000Y-18417000D03*
%TD*%
D13*
%TO.P,J1,1,Pin_1*%
%TO.N,Net-(J1-Pin_1)*%
X13986000Y-2545375D03*
%TD*%
D11*
%TO.P,SW4,1,1*%
%TO.N,/GPIO4*%
X12976000Y-24787000D03*
%TO.P,SW4,2,2*%
%TO.N,unconnected-(SW4-Pad2)*%
X12976000Y-18287000D03*
%TO.P,SW4,3,K*%
%TO.N,Net-(SW4-K)*%
X17476000Y-24787000D03*
%TO.P,SW4,4,A*%
%TO.N,+3.3V*%
X17476000Y-18287000D03*
%TD*%
D14*
%TO.P,U2,1*%
%TO.N,+3.3V*%
X6363000Y-60183000D03*
D15*
%TO.P,U2,2*%
%TO.N,GND*%
X6363000Y-57643000D03*
%TO.P,U2,3*%
%TO.N,/GPIO13*%
X6363000Y-55103000D03*
%TO.P,U2,4*%
%TO.N,/GPIO16*%
X6363000Y-52563000D03*
%TO.P,U2,5*%
%TO.N,/GPIO12*%
X6363000Y-50023000D03*
%TO.P,U2,6*%
%TO.N,/GPIO15*%
X6363000Y-47483000D03*
%TO.P,U2,7*%
%TO.N,/GPIO14*%
X6363000Y-44943000D03*
%TO.P,U2,8*%
%TO.N,+3.3V*%
X6363000Y-42403000D03*
%TO.P,U2,9*%
%TO.N,N/C*%
X6363000Y-39863000D03*
%TD*%
D13*
%TO.P,J2,1,Pin_1*%
%TO.N,/GPIO2*%
X14016000Y-6618400D03*
%TD*%
D16*
%TO.P,U_Switch,1*%
%TO.N,+BATT*%
X-2768000Y-25566800D03*
%TO.P,U_Switch,2*%
%TO.N,GND*%
X-228000Y-25566800D03*
%TO.P,U_Switch,3*%
%TO.N,N/C*%
X2312000Y-25566800D03*
%TO.P,U_Switch,4*%
%TO.N,BT1+*%
X-2768000Y-28866800D03*
%TO.P,U_Switch,5*%
%TO.N,-BATT*%
X-228000Y-28866800D03*
%TO.P,U_Switch,6*%
%TO.N,N/C*%
X2312000Y-28866800D03*
%TD*%
D17*
%TO.P,J4,1,Pin_1*%
%TO.N,+BATT*%
X27661200Y-4281600D03*
D18*
%TO.P,J4,2,Pin_2*%
%TO.N,+3.3V*%
X27661200Y-6821600D03*
%TO.P,J4,3,Pin_3*%
%TO.N,/GPIO47_ADC7*%
X27661200Y-9361600D03*
%TO.P,J4,4,Pin_4*%
%TO.N,/GPIO46_ADC6*%
X27661200Y-11901600D03*
%TO.P,J4,5,Pin_5*%
%TO.N,/GPIO45_ADC5*%
X27661200Y-14441600D03*
%TO.P,J4,6,Pin_6*%
%TO.N,/GPIO44_ADC4*%
X27661200Y-16981600D03*
%TO.P,J4,7,Pin_7*%
%TO.N,/GPIO43_ADC3*%
X27661200Y-19521600D03*
%TO.P,J4,8,Pin_8*%
%TO.N,/GPIO42_ADC2*%
X27661200Y-22061600D03*
%TO.P,J4,9,Pin_9*%
%TO.N,/GPIO41_ADC1*%
X27661200Y-24601600D03*
%TO.P,J4,10,Pin_10*%
%TO.N,x*%
X27661200Y-27141600D03*
%TO.P,J4,11,Pin_11*%
%TO.N,/GPIO39*%
X27661200Y-29681600D03*
%TO.P,J4,12,Pin_12*%
%TO.N,/GPIO38*%
X27661200Y-32221600D03*
%TO.P,J4,13,Pin_13*%
%TO.N,/GPIO37*%
X27661200Y-34761600D03*
%TO.P,J4,14,Pin_14*%
%TO.N,/GPIO36*%
X27661200Y-37301600D03*
%TO.P,J4,15,Pin_15*%
%TO.N,/GPIO35*%
X27661200Y-39841600D03*
%TO.P,J4,16,Pin_16*%
%TO.N,/GPIO34*%
X27661200Y-42381600D03*
%TO.P,J4,17,Pin_17*%
%TO.N,/GPIO33*%
X27661200Y-44921600D03*
%TO.P,J4,18,Pin_18*%
%TO.N,/GPIO32*%
X27661200Y-47461600D03*
%TO.P,J4,19,Pin_19*%
%TO.N,/GPIO31*%
X27661200Y-50001600D03*
%TO.P,J4,20,Pin_20*%
%TO.N,/GPIO30*%
X27661200Y-52541600D03*
%TO.P,J4,21,Pin_21*%
%TO.N,/GPIO29*%
X27661200Y-55081600D03*
%TO.P,J4,22,Pin_22*%
%TO.N,/GPIO28*%
X27661200Y-57621600D03*
%TO.P,J4,23,Pin_23*%
%TO.N,/GPIO27*%
X27661200Y-60161600D03*
%TO.P,J4,24,Pin_24*%
%TO.N,/GPIO26*%
X27661200Y-62701600D03*
%TO.P,J4,25,Pin_25*%
%TO.N,/GPIO25*%
X27661200Y-65241600D03*
%TO.P,J4,26,Pin_26*%
%TO.N,/SWCLK*%
X27661200Y-67781600D03*
%TO.P,J4,27,Pin_27*%
%TO.N,/SWD*%
X27661200Y-70321600D03*
%TO.P,J4,28,Pin_28*%
%TO.N,GND*%
X27661200Y-72861600D03*
%TD*%
D12*
%TO.P,BATT3,1*%
%TO.N,GND*%
X-1651500Y-37342000D03*
%TO.P,BATT3,2*%
%TO.N,-BATT*%
X-1651500Y-50042000D03*
%TD*%
D17*
%TO.P,J3,1,Pin_1*%
%TO.N,+BATT*%
X9932000Y-4247000D03*
D18*
%TO.P,J3,2,Pin_2*%
%TO.N,+3.3V*%
X9932000Y-6787000D03*
%TO.P,J3,3,Pin_3*%
%TO.N,/GPIO0*%
X9932000Y-9327000D03*
%TO.P,J3,4,Pin_4*%
%TO.N,/GPIO1*%
X9932000Y-11867000D03*
%TO.P,J3,5,Pin_5*%
%TO.N,/GPIO2*%
X9932000Y-14407000D03*
%TO.P,J3,6,Pin_6*%
%TO.N,/GPIO3*%
X9932000Y-16947000D03*
%TO.P,J3,7,Pin_7*%
%TO.N,/GPIO4*%
X9932000Y-19487000D03*
%TO.P,J3,8,Pin_8*%
%TO.N,/GPIO5*%
X9932000Y-22027000D03*
%TO.P,J3,9,Pin_9*%
%TO.N,/GPIO6*%
X9932000Y-24567000D03*
%TO.P,J3,10,Pin_10*%
%TO.N,/GPIO7*%
X9932000Y-27107000D03*
%TO.P,J3,11,Pin_11*%
%TO.N,/GPIO8*%
X9932000Y-29647000D03*
%TO.P,J3,12,Pin_12*%
%TO.N,/GPIO9*%
X9932000Y-32187000D03*
%TO.P,J3,13,Pin_13*%
%TO.N,/GPIO10*%
X9932000Y-34727000D03*
%TO.P,J3,14,Pin_14*%
%TO.N,/GPIO11*%
X9932000Y-37267000D03*
%TO.P,J3,15,Pin_15*%
%TO.N,/GPIO12*%
X9932000Y-39807000D03*
%TO.P,J3,16,Pin_16*%
%TO.N,/GPIO13*%
X9932000Y-42347000D03*
%TO.P,J3,17,Pin_17*%
%TO.N,/GPIO14*%
X9932000Y-44887000D03*
%TO.P,J3,18,Pin_18*%
%TO.N,/GPIO15*%
X9932000Y-47427000D03*
%TO.P,J3,19,Pin_19*%
%TO.N,/GPIO16*%
X9932000Y-49967000D03*
%TO.P,J3,20,Pin_20*%
%TO.N,/GPIO17*%
X9932000Y-52507000D03*
%TO.P,J3,21,Pin_21*%
%TO.N,/GPIO18*%
X9932000Y-55047000D03*
%TO.P,J3,22,Pin_22*%
%TO.N,/GPIO19*%
X9932000Y-57587000D03*
%TO.P,J3,23,Pin_23*%
%TO.N,/GPIO20*%
X9932000Y-60127000D03*
%TO.P,J3,24,Pin_24*%
%TO.N,/GPIO21*%
X9932000Y-62667000D03*
%TO.P,J3,25,Pin_25*%
%TO.N,/GPIO22*%
X9932000Y-65207000D03*
%TO.P,J3,26,Pin_26*%
%TO.N,/GPIO23*%
X9932000Y-67747000D03*
%TO.P,J3,27,Pin_27*%
%TO.N,/GPIO24*%
X9932000Y-70287000D03*
%TO.P,J3,28,Pin_28*%
%TO.N,GND*%
X9932000Y-72827000D03*
%TD*%
D12*
%TO.P,BT2,1*%
%TO.N,GND*%
X2956000Y-18417000D03*
%TO.P,BT2,2*%
%TO.N,BT1_GND*%
X2956000Y-5717000D03*
%TD*%
D19*
%TO.N,/GPIO47_ADC7*%
X25286000Y-8047000D03*
%TO.N,Net-(U1C--)*%
X22236000Y-9267000D03*
X20326000Y-9267000D03*
%TD*%
D20*
%TO.N,+3.3V*%
X15636000Y-16997000D02*
X15636000Y-9662000D01*
X14866603Y-9537000D02*
X15761000Y-9537000D01*
X15761000Y-9537000D02*
X17456000Y-9537000D01*
X16926000Y-18287000D02*
X17476000Y-18287000D01*
X15636000Y-16997000D02*
X16926000Y-18287000D01*
X12116603Y-6787000D02*
X14866603Y-9537000D01*
X10126000Y-6787000D02*
X12116603Y-6787000D01*
D21*
%TO.N,/GPIO13*%
X6363000Y-55103000D02*
X6490000Y-55103000D01*
X8662000Y-52931000D02*
X8662000Y-43811000D01*
X6490000Y-55103000D02*
X8662000Y-52931000D01*
X8662000Y-43811000D02*
X10126000Y-42347000D01*
%TO.N,/GPIO5*%
X21676000Y-27067000D02*
X16636000Y-22027000D01*
X16636000Y-22027000D02*
X10126000Y-22027000D01*
D20*
%TO.N,+BATT*%
X-841693Y-23640493D02*
X-841693Y-15020693D01*
X-841693Y-15020693D02*
X9932000Y-4247000D01*
X-2768000Y-25566800D02*
X-841693Y-23640493D01*
D21*
%TO.N,/GPIO12*%
X6363000Y-50023000D02*
X8056000Y-48330000D01*
X8056000Y-48245000D02*
X8056000Y-41877000D01*
X8056000Y-48330000D02*
X8056000Y-48245000D01*
X8056000Y-41877000D02*
X10126000Y-39807000D01*
%TO.N,/GPIO6*%
X16596000Y-27067000D02*
X12626000Y-27067000D01*
X12626000Y-27067000D02*
X10126000Y-24567000D01*
%TO.N,/GPIO47_ADC7*%
X27661200Y-9361600D02*
X26346600Y-8047000D01*
X26346600Y-8047000D02*
X25286000Y-8047000D01*
%TO.N,Net-(U1C--)*%
X22236000Y-9267000D02*
X20326000Y-9267000D01*
%TO.N,GND*%
X-228000Y-25566800D02*
X-1379000Y-26717800D01*
X19056000Y-56077000D02*
X16516000Y-58617000D01*
X19136000Y-39027000D02*
X16596000Y-41567000D01*
X2956000Y-18417000D02*
X-228000Y-21601000D01*
X19056000Y-44027000D02*
X19056000Y-44117000D01*
X16516000Y-66437000D02*
X10126000Y-72827000D01*
X-1379000Y-26717800D02*
X-1379000Y-37069500D01*
X-1379000Y-37069500D02*
X-1651500Y-37342000D01*
X19136000Y-27067000D02*
X19136000Y-39027000D01*
X16596000Y-41567000D02*
X19056000Y-44027000D01*
X-228000Y-21601000D02*
X-228000Y-25566800D01*
X2956000Y-18417000D02*
X2959400Y-18417000D01*
X4585000Y-55865000D02*
X6363000Y-57643000D01*
X4585000Y-43578500D02*
X4585000Y-55865000D01*
X16516000Y-58617000D02*
X16516000Y-66437000D01*
X-1651500Y-37342000D02*
X4585000Y-43578500D01*
X19056000Y-44117000D02*
X19056000Y-56077000D01*
X2959400Y-18417000D02*
X2972400Y-18404000D01*
%TD*%
%TA.AperFunction,Conductor*%
%TO.N,GND*%
G36*
X8986696Y-53518991D02*
G01*
X9019997Y-53520471D01*
X9022009Y-53521516D01*
X9023149Y-53521598D01*
X9051419Y-53536543D01*
X9052197Y-53537093D01*
X9052208Y-53537104D01*
X9224184Y-53662051D01*
X9240933Y-53670585D01*
X9248254Y-53675763D01*
X9264598Y-53696411D01*
X9283742Y-53714491D01*
X9285941Y-53723372D01*
X9291620Y-53730546D01*
X9294207Y-53756753D01*
X9300536Y-53782312D01*
X9297585Y-53790971D01*
X9298484Y-53800078D01*
X9286491Y-53823523D01*
X9277998Y-53848447D01*
X9270356Y-53855068D01*
X9266666Y-53862283D01*
X9252564Y-53870484D01*
X9232946Y-53887484D01*
X9224182Y-53891949D01*
X9052213Y-54016890D01*
X8901890Y-54167213D01*
X8776951Y-54339179D01*
X8680444Y-54528585D01*
X8614753Y-54730760D01*
X8597089Y-54842290D01*
X8581500Y-54940713D01*
X8581500Y-55153287D01*
X8614754Y-55363243D01*
X8625996Y-55397843D01*
X8680444Y-55565414D01*
X8776951Y-55754820D01*
X8901890Y-55926786D01*
X9052213Y-56077109D01*
X9224182Y-56202050D01*
X9232946Y-56206516D01*
X9283742Y-56254491D01*
X9300536Y-56322312D01*
X9277998Y-56388447D01*
X9232946Y-56427484D01*
X9224182Y-56431949D01*
X9052213Y-56556890D01*
X8901890Y-56707213D01*
X8776951Y-56879179D01*
X8680444Y-57068585D01*
X8614753Y-57270760D01*
X8581500Y-57480713D01*
X8581500Y-57693286D01*
X8611585Y-57883239D01*
X8614754Y-57903243D01*
X8671989Y-58079394D01*
X8680444Y-58105414D01*
X8776951Y-58294820D01*
X8901890Y-58466786D01*
X9052213Y-58617109D01*
X9224182Y-58742050D01*
X9232946Y-58746516D01*
X9283742Y-58794491D01*
X9300536Y-58862312D01*
X9277998Y-58928447D01*
X9232946Y-58967484D01*
X9224182Y-58971949D01*
X9052213Y-59096890D01*
X8901890Y-59247213D01*
X8776951Y-59419179D01*
X8680444Y-59608585D01*
X8614753Y-59810760D01*
X8609273Y-59845360D01*
X8581500Y-60020713D01*
X8581500Y-60233287D01*
X8614754Y-60443243D01*
X8625996Y-60477843D01*
X8680444Y-60645414D01*
X8776951Y-60834820D01*
X8901890Y-61006786D01*
X9052213Y-61157109D01*
X9224182Y-61282050D01*
X9232946Y-61286516D01*
X9283742Y-61334491D01*
X9300536Y-61402312D01*
X9277998Y-61468447D01*
X9232946Y-61507484D01*
X9224182Y-61511949D01*
X9052213Y-61636890D01*
X8901890Y-61787213D01*
X8776951Y-61959179D01*
X8680444Y-62148585D01*
X8614753Y-62350760D01*
X8609273Y-62385360D01*
X8581500Y-62560713D01*
X8581500Y-62773287D01*
X8614754Y-62983243D01*
X8625996Y-63017843D01*
X8680444Y-63185414D01*
X8776951Y-63374820D01*
X8901890Y-63546786D01*
X9052213Y-63697109D01*
X9224182Y-63822050D01*
X9232946Y-63826516D01*
X9283742Y-63874491D01*
X9300536Y-63942312D01*
X9277998Y-64008447D01*
X9232946Y-64047484D01*
X9224182Y-64051949D01*
X9052213Y-64176890D01*
X8901890Y-64327213D01*
X8776951Y-64499179D01*
X8680444Y-64688585D01*
X8614753Y-64890760D01*
X8609273Y-64925360D01*
X8581500Y-65100713D01*
X8581500Y-65313287D01*
X8614754Y-65523243D01*
X8625996Y-65557843D01*
X8680444Y-65725414D01*
X8776951Y-65914820D01*
X8901890Y-66086786D01*
X9052213Y-66237109D01*
X9224182Y-66362050D01*
X9232946Y-66366516D01*
X9283742Y-66414491D01*
X9300536Y-66482312D01*
X9277998Y-66548447D01*
X9232946Y-66587484D01*
X9224182Y-66591949D01*
X9052213Y-66716890D01*
X8901890Y-66867213D01*
X8776951Y-67039179D01*
X8680444Y-67228585D01*
X8614753Y-67430760D01*
X8609273Y-67465360D01*
X8581500Y-67640713D01*
X8581500Y-67853287D01*
X8614754Y-68063243D01*
X8625996Y-68097843D01*
X8680444Y-68265414D01*
X8776951Y-68454820D01*
X8901890Y-68626786D01*
X9052213Y-68777109D01*
X9224182Y-68902050D01*
X9232946Y-68906516D01*
X9283742Y-68954491D01*
X9300536Y-69022312D01*
X9277998Y-69088447D01*
X9232946Y-69127484D01*
X9224182Y-69131949D01*
X9052213Y-69256890D01*
X8901890Y-69407213D01*
X8776951Y-69579179D01*
X8680444Y-69768585D01*
X8614753Y-69970760D01*
X8609273Y-70005360D01*
X8581500Y-70180713D01*
X8581500Y-70393287D01*
X8614754Y-70603243D01*
X8625996Y-70637843D01*
X8680444Y-70805414D01*
X8776951Y-70994820D01*
X8901890Y-71166786D01*
X9052213Y-71317109D01*
X9224179Y-71442048D01*
X9224181Y-71442049D01*
X9224184Y-71442051D01*
X9233493Y-71446794D01*
X9284290Y-71494766D01*
X9301087Y-71562587D01*
X9278552Y-71628722D01*
X9233502Y-71667762D01*
X9224443Y-71672378D01*
X9052540Y-71797272D01*
X9052535Y-71797276D01*
X8902276Y-71947535D01*
X8902272Y-71947540D01*
X8777379Y-72119442D01*
X8680904Y-72308782D01*
X8615242Y-72510870D01*
X8615242Y-72510873D01*
X8604769Y-72577000D01*
X9498988Y-72577000D01*
X9466075Y-72634007D01*
X9432000Y-72761174D01*
X9432000Y-72892826D01*
X9466075Y-73019993D01*
X9498988Y-73077000D01*
X8604769Y-73077000D01*
X8615242Y-73143126D01*
X8615242Y-73143129D01*
X8680904Y-73345217D01*
X8777379Y-73534557D01*
X8902272Y-73706459D01*
X8902276Y-73706464D01*
X9052535Y-73856723D01*
X9052540Y-73856727D01*
X9224442Y-73981620D01*
X9413782Y-74078095D01*
X9479872Y-74099569D01*
X9537547Y-74139006D01*
X9564746Y-74203365D01*
X9552832Y-74272211D01*
X9505588Y-74323687D01*
X9441554Y-74341500D01*
X8460774Y-74341500D01*
X8393735Y-74321815D01*
X8347980Y-74269011D01*
X8336774Y-74217716D01*
X8302355Y-54191448D01*
X8321923Y-54124380D01*
X8338664Y-54103569D01*
X8892136Y-53550097D01*
X8921365Y-53534137D01*
X8950196Y-53517369D01*
X8951932Y-53517446D01*
X8953457Y-53516614D01*
X8986696Y-53518991D01*
G37*
%TD.AperFunction*%
%TA.AperFunction,Conductor*%
G36*
X26253110Y-4964629D02*
G01*
X26299182Y-5017156D01*
X26310700Y-5069345D01*
X26310700Y-5179469D01*
X26310701Y-5179476D01*
X26317108Y-5239083D01*
X26367402Y-5373928D01*
X26367406Y-5373935D01*
X26453652Y-5489144D01*
X26453655Y-5489147D01*
X26568864Y-5575393D01*
X26568871Y-5575397D01*
X26700282Y-5624410D01*
X26756216Y-5666281D01*
X26780633Y-5731745D01*
X26765782Y-5800018D01*
X26744631Y-5828273D01*
X26631089Y-5941815D01*
X26506151Y-6113779D01*
X26409644Y-6303185D01*
X26343953Y-6505360D01*
X26320291Y-6654756D01*
X26310700Y-6715313D01*
X26310700Y-6927887D01*
X26343954Y-7137843D01*
X26391503Y-7284183D01*
X26392306Y-7312294D01*
X26396311Y-7340137D01*
X26393290Y-7346752D01*
X26393498Y-7354022D01*
X26378973Y-7378108D01*
X26367291Y-7403695D01*
X26361173Y-7407627D01*
X26357418Y-7413855D01*
X26332178Y-7426264D01*
X26308516Y-7441474D01*
X26298237Y-7442952D01*
X26294717Y-7444683D01*
X26273581Y-7446499D01*
X26267543Y-7446499D01*
X26267541Y-7446499D01*
X26259940Y-7446500D01*
X26259938Y-7446499D01*
X26259931Y-7446500D01*
X25865766Y-7446500D01*
X25798727Y-7426815D01*
X25796875Y-7425602D01*
X25665185Y-7337609D01*
X25665172Y-7337602D01*
X25519501Y-7277264D01*
X25519489Y-7277261D01*
X25364845Y-7246500D01*
X25364842Y-7246500D01*
X25207158Y-7246500D01*
X25207155Y-7246500D01*
X25052510Y-7277261D01*
X25052498Y-7277264D01*
X24906827Y-7337602D01*
X24906814Y-7337609D01*
X24775711Y-7425210D01*
X24775707Y-7425213D01*
X24664213Y-7536707D01*
X24664210Y-7536711D01*
X24576609Y-7667814D01*
X24576602Y-7667827D01*
X24516264Y-7813498D01*
X24516261Y-7813510D01*
X24485500Y-7968153D01*
X24485500Y-8125846D01*
X24516261Y-8280489D01*
X24516264Y-8280501D01*
X24576602Y-8426172D01*
X24576609Y-8426185D01*
X24664210Y-8557288D01*
X24664213Y-8557292D01*
X24775707Y-8668786D01*
X24775711Y-8668789D01*
X24906814Y-8756390D01*
X24906827Y-8756397D01*
X25032822Y-8808585D01*
X25052503Y-8816737D01*
X25207153Y-8847499D01*
X25207156Y-8847500D01*
X25207158Y-8847500D01*
X25364844Y-8847500D01*
X25364845Y-8847499D01*
X25519497Y-8816737D01*
X25664414Y-8756711D01*
X25665172Y-8756397D01*
X25665172Y-8756396D01*
X25665179Y-8756394D01*
X25696623Y-8735384D01*
X25796875Y-8668398D01*
X25814921Y-8662747D01*
X25830831Y-8652523D01*
X25861792Y-8648071D01*
X25863553Y-8647520D01*
X25865766Y-8647500D01*
X26046503Y-8647500D01*
X26113542Y-8667185D01*
X26134184Y-8683819D01*
X26327441Y-8877076D01*
X26360926Y-8938399D01*
X26357692Y-9003073D01*
X26343953Y-9045357D01*
X26310700Y-9255313D01*
X26310700Y-9467886D01*
X26338937Y-9646172D01*
X26343954Y-9677843D01*
X26404749Y-9864951D01*
X26409644Y-9880014D01*
X26506151Y-10069420D01*
X26631090Y-10241386D01*
X26781413Y-10391709D01*
X26953382Y-10516650D01*
X26962146Y-10521116D01*
X27012942Y-10569091D01*
X27029736Y-10636912D01*
X27007198Y-10703047D01*
X26962146Y-10742084D01*
X26953382Y-10746549D01*
X26781413Y-10871490D01*
X26631090Y-11021813D01*
X26506151Y-11193779D01*
X26409644Y-11383185D01*
X26343953Y-11585360D01*
X26316180Y-11760713D01*
X26310700Y-11795313D01*
X26310700Y-12007887D01*
X26343954Y-12217843D01*
X26398401Y-12385414D01*
X26409644Y-12420014D01*
X26506151Y-12609420D01*
X26631090Y-12781386D01*
X26781413Y-12931709D01*
X26953382Y-13056650D01*
X26962146Y-13061116D01*
X27012942Y-13109091D01*
X27029736Y-13176912D01*
X27007198Y-13243047D01*
X26962146Y-13282084D01*
X26953382Y-13286549D01*
X26781413Y-13411490D01*
X26631090Y-13561813D01*
X26506151Y-13733779D01*
X26409644Y-13923185D01*
X26343953Y-14125360D01*
X26310700Y-14335313D01*
X26310700Y-14547886D01*
X26329280Y-14665199D01*
X26343954Y-14757843D01*
X26405342Y-14946776D01*
X26409644Y-14960014D01*
X26506151Y-15149420D01*
X26631090Y-15321386D01*
X26781413Y-15471709D01*
X26953382Y-15596650D01*
X26962146Y-15601116D01*
X27012942Y-15649091D01*
X27029736Y-15716912D01*
X27007198Y-15783047D01*
X26962146Y-15822084D01*
X26953382Y-15826549D01*
X26781413Y-15951490D01*
X26631090Y-16101813D01*
X26506151Y-16273779D01*
X26409644Y-16463185D01*
X26343953Y-16665360D01*
X26310700Y-16875313D01*
X26310700Y-17087886D01*
X26337909Y-17259681D01*
X26343954Y-17297843D01*
X26401651Y-17475416D01*
X26409644Y-17500014D01*
X26506151Y-17689420D01*
X26631090Y-17861386D01*
X26781413Y-18011709D01*
X26953382Y-18136650D01*
X26962146Y-18141116D01*
X27012942Y-18189091D01*
X27029736Y-18256912D01*
X27007198Y-18323047D01*
X26962146Y-18362084D01*
X26953382Y-18366549D01*
X26781413Y-18491490D01*
X26631090Y-18641813D01*
X26506151Y-18813779D01*
X26409644Y-19003185D01*
X26343953Y-19205360D01*
X26316180Y-19380713D01*
X26310700Y-19415313D01*
X26310700Y-19627887D01*
X26343954Y-19837843D01*
X26398401Y-20005414D01*
X26409644Y-20040014D01*
X26506151Y-20229420D01*
X26631090Y-20401386D01*
X26781413Y-20551709D01*
X26953382Y-20676650D01*
X26962146Y-20681116D01*
X27012942Y-20729091D01*
X27029736Y-20796912D01*
X27007198Y-20863047D01*
X26962146Y-20902084D01*
X26953382Y-20906549D01*
X26781413Y-21031490D01*
X26631090Y-21181813D01*
X26506151Y-21353779D01*
X26409644Y-21543185D01*
X26343953Y-21745360D01*
X26316180Y-21920713D01*
X26310700Y-21955313D01*
X26310700Y-22167887D01*
X26343954Y-22377843D01*
X26398401Y-22545414D01*
X26409644Y-22580014D01*
X26506151Y-22769420D01*
X26631090Y-22941386D01*
X26781413Y-23091709D01*
X26953382Y-23216650D01*
X26962146Y-23221116D01*
X27012942Y-23269091D01*
X27029736Y-23336912D01*
X27007198Y-23403047D01*
X26962146Y-23442084D01*
X26953382Y-23446549D01*
X26781413Y-23571490D01*
X26631090Y-23721813D01*
X26506151Y-23893779D01*
X26409644Y-24083185D01*
X26343953Y-24285360D01*
X26310700Y-24495313D01*
X26310700Y-24707886D01*
X26342907Y-24911237D01*
X26343954Y-24917843D01*
X26398401Y-25085414D01*
X26409644Y-25120014D01*
X26506151Y-25309420D01*
X26631090Y-25481386D01*
X26781413Y-25631709D01*
X26953382Y-25756650D01*
X26962146Y-25761116D01*
X27012942Y-25809091D01*
X27029736Y-25876912D01*
X27007198Y-25943047D01*
X26962146Y-25982084D01*
X26953382Y-25986549D01*
X26781413Y-26111490D01*
X26631090Y-26261813D01*
X26506151Y-26433779D01*
X26409644Y-26623185D01*
X26409643Y-26623187D01*
X26409643Y-26623188D01*
X26376798Y-26724272D01*
X26343953Y-26825360D01*
X26310700Y-27035313D01*
X26310700Y-27247886D01*
X26339761Y-27431374D01*
X26343954Y-27457843D01*
X26398779Y-27626577D01*
X26409644Y-27660014D01*
X26506151Y-27849420D01*
X26631090Y-28021386D01*
X26781413Y-28171709D01*
X26953382Y-28296650D01*
X26962146Y-28301116D01*
X27012942Y-28349091D01*
X27029736Y-28416912D01*
X27007198Y-28483047D01*
X26962146Y-28522084D01*
X26953382Y-28526549D01*
X26781413Y-28651490D01*
X26631090Y-28801813D01*
X26506151Y-28973779D01*
X26409644Y-29163185D01*
X26343953Y-29365360D01*
X26316180Y-29540713D01*
X26310700Y-29575313D01*
X26310700Y-29787887D01*
X26343954Y-29997843D01*
X26398401Y-30165414D01*
X26409644Y-30200014D01*
X26506151Y-30389420D01*
X26631090Y-30561386D01*
X26781413Y-30711709D01*
X26953382Y-30836650D01*
X26962146Y-30841116D01*
X27012942Y-30889091D01*
X27029736Y-30956912D01*
X27007198Y-31023047D01*
X26962146Y-31062084D01*
X26953382Y-31066549D01*
X26781413Y-31191490D01*
X26631090Y-31341813D01*
X26506151Y-31513779D01*
X26409644Y-31703185D01*
X26343953Y-31905360D01*
X26318431Y-32066500D01*
X26310700Y-32115313D01*
X26310700Y-32327887D01*
X26343954Y-32537843D01*
X26398401Y-32705414D01*
X26409644Y-32740014D01*
X26506151Y-32929420D01*
X26631090Y-33101386D01*
X26781413Y-33251709D01*
X26953382Y-33376650D01*
X26962146Y-33381116D01*
X27012942Y-33429091D01*
X27029736Y-33496912D01*
X27007198Y-33563047D01*
X26962146Y-33602084D01*
X26953382Y-33606549D01*
X26781413Y-33731490D01*
X26631094Y-33881809D01*
X26631090Y-33881814D01*
X26510818Y-34047356D01*
X26455488Y-34090022D01*
X26385875Y-34096001D01*
X26324080Y-34063396D01*
X26289723Y-34002557D01*
X26286500Y-33974471D01*
X26286500Y-33587097D01*
X26258538Y-33410556D01*
X26245860Y-33330507D01*
X26165579Y-33083428D01*
X26165577Y-33083425D01*
X26165577Y-33083423D01*
X26122787Y-32999445D01*
X26047634Y-32851949D01*
X25894931Y-32641771D01*
X25711229Y-32458069D01*
X25501051Y-32305366D01*
X25428764Y-32268534D01*
X25269576Y-32187422D01*
X25022493Y-32107140D01*
X24765902Y-32066500D01*
X24765897Y-32066500D01*
X24506103Y-32066500D01*
X24506098Y-32066500D01*
X24249506Y-32107140D01*
X24002423Y-32187422D01*
X23770945Y-32305368D01*
X23560774Y-32458066D01*
X23560768Y-32458071D01*
X23377071Y-32641768D01*
X23377066Y-32641774D01*
X23224368Y-32851945D01*
X23106422Y-33083423D01*
X23026140Y-33330506D01*
X22985500Y-33587097D01*
X22985500Y-35546902D01*
X23026140Y-35803493D01*
X23106422Y-36050576D01*
X23224368Y-36282054D01*
X23325905Y-36421808D01*
X23377069Y-36492229D01*
X23560771Y-36675931D01*
X23770949Y-36828634D01*
X23918445Y-36903787D01*
X24002423Y-36946577D01*
X24002425Y-36946577D01*
X24002428Y-36946579D01*
X24249507Y-37026860D01*
X24381706Y-37047797D01*
X24506098Y-37067500D01*
X24506103Y-37067500D01*
X24765902Y-37067500D01*
X24879298Y-37049539D01*
X25022493Y-37026860D01*
X25269572Y-36946579D01*
X25501051Y-36828634D01*
X25711229Y-36675931D01*
X25894931Y-36492229D01*
X26047634Y-36282051D01*
X26165579Y-36050572D01*
X26245860Y-35803493D01*
X26277015Y-35606786D01*
X26286500Y-35546900D01*
X26286882Y-35542047D01*
X26288426Y-35542168D01*
X26306185Y-35481689D01*
X26358989Y-35435934D01*
X26428147Y-35425990D01*
X26491703Y-35455015D01*
X26510816Y-35475840D01*
X26605958Y-35606792D01*
X26631096Y-35641392D01*
X26781413Y-35791709D01*
X26953382Y-35916650D01*
X26962146Y-35921116D01*
X27012942Y-35969091D01*
X27029736Y-36036912D01*
X27007198Y-36103047D01*
X26962146Y-36142084D01*
X26953382Y-36146549D01*
X26781413Y-36271490D01*
X26631090Y-36421813D01*
X26506151Y-36593779D01*
X26409644Y-36783185D01*
X26343953Y-36985360D01*
X26316180Y-37160713D01*
X26310700Y-37195313D01*
X26310700Y-37407887D01*
X26343954Y-37617843D01*
X26398401Y-37785414D01*
X26409644Y-37820014D01*
X26506151Y-38009420D01*
X26631090Y-38181386D01*
X26781413Y-38331709D01*
X26953382Y-38456650D01*
X26962146Y-38461116D01*
X27012942Y-38509091D01*
X27029736Y-38576912D01*
X27007198Y-38643047D01*
X26962146Y-38682084D01*
X26953382Y-38686549D01*
X26781413Y-38811490D01*
X26631090Y-38961813D01*
X26506151Y-39133779D01*
X26409644Y-39323185D01*
X26343953Y-39525360D01*
X26316180Y-39700713D01*
X26310700Y-39735313D01*
X26310700Y-39947887D01*
X26343954Y-40157843D01*
X26405620Y-40347632D01*
X26409644Y-40360014D01*
X26506151Y-40549420D01*
X26631090Y-40721386D01*
X26781413Y-40871709D01*
X26953382Y-40996650D01*
X26962146Y-41001116D01*
X27012942Y-41049091D01*
X27029736Y-41116912D01*
X27007198Y-41183047D01*
X26962146Y-41222084D01*
X26953382Y-41226549D01*
X26781413Y-41351490D01*
X26631090Y-41501813D01*
X26506151Y-41673779D01*
X26409644Y-41863185D01*
X26343953Y-42065360D01*
X26331653Y-42143022D01*
X26310700Y-42275313D01*
X26310700Y-42487887D01*
X26320734Y-42551244D01*
X26334039Y-42635247D01*
X26343954Y-42697843D01*
X26405620Y-42887632D01*
X26409644Y-42900014D01*
X26506151Y-43089420D01*
X26631090Y-43261386D01*
X26781413Y-43411709D01*
X26953382Y-43536650D01*
X26962146Y-43541116D01*
X27012942Y-43589091D01*
X27029736Y-43656912D01*
X27007198Y-43723047D01*
X26962146Y-43762084D01*
X26953382Y-43766549D01*
X26781413Y-43891490D01*
X26631090Y-44041813D01*
X26506151Y-44213779D01*
X26409644Y-44403185D01*
X26343953Y-44605360D01*
X26330069Y-44693022D01*
X26310700Y-44815313D01*
X26310700Y-45027887D01*
X26320734Y-45091244D01*
X26335623Y-45185247D01*
X26343954Y-45237843D01*
X26405620Y-45427632D01*
X26409644Y-45440014D01*
X26506151Y-45629420D01*
X26631090Y-45801386D01*
X26781413Y-45951709D01*
X26953382Y-46076650D01*
X26962146Y-46081116D01*
X27012942Y-46129091D01*
X27029736Y-46196912D01*
X27007198Y-46263047D01*
X26962146Y-46302084D01*
X26953382Y-46306549D01*
X26781413Y-46431490D01*
X26631090Y-46581813D01*
X26506151Y-46753779D01*
X26409644Y-46943185D01*
X26343953Y-47145360D01*
X26316180Y-47320713D01*
X26310700Y-47355313D01*
X26310700Y-47567887D01*
X26343954Y-47777843D01*
X26405620Y-47967632D01*
X26409644Y-47980014D01*
X26506151Y-48169420D01*
X26631090Y-48341386D01*
X26781413Y-48491709D01*
X26953382Y-48616650D01*
X26962146Y-48621116D01*
X27012942Y-48669091D01*
X27029736Y-48736912D01*
X27007198Y-48803047D01*
X26962146Y-48842084D01*
X26953382Y-48846549D01*
X26781413Y-48971490D01*
X26631090Y-49121813D01*
X26506151Y-49293779D01*
X26409644Y-49483185D01*
X26343953Y-49685360D01*
X26310700Y-49895313D01*
X26310700Y-50058754D01*
X26291015Y-50125793D01*
X26238211Y-50171548D01*
X26169053Y-50181492D01*
X26105497Y-50152467D01*
X26076215Y-50115049D01*
X26033968Y-50032136D01*
X25967634Y-49901949D01*
X25814931Y-49691771D01*
X25631229Y-49508069D01*
X25421051Y-49355366D01*
X25348764Y-49318534D01*
X25189576Y-49237422D01*
X24942493Y-49157140D01*
X24685902Y-49116500D01*
X24685897Y-49116500D01*
X24426103Y-49116500D01*
X24426098Y-49116500D01*
X24169506Y-49157140D01*
X23922423Y-49237422D01*
X23690945Y-49355368D01*
X23480774Y-49508066D01*
X23480768Y-49508071D01*
X23297071Y-49691768D01*
X23297066Y-49691774D01*
X23144368Y-49901945D01*
X23026422Y-50133423D01*
X22946140Y-50380506D01*
X22905500Y-50637097D01*
X22905500Y-52596902D01*
X22946140Y-52853493D01*
X23026422Y-53100576D01*
X23144368Y-53332054D01*
X23209276Y-53421392D01*
X23297069Y-53542229D01*
X23480771Y-53725931D01*
X23690949Y-53878634D01*
X23797638Y-53932995D01*
X23922423Y-53996577D01*
X23922425Y-53996577D01*
X23922428Y-53996579D01*
X24169507Y-54076860D01*
X24301706Y-54097797D01*
X24426098Y-54117500D01*
X24426103Y-54117500D01*
X24685902Y-54117500D01*
X24799298Y-54099539D01*
X24942493Y-54076860D01*
X25189572Y-53996579D01*
X25421051Y-53878634D01*
X25631229Y-53725931D01*
X25814931Y-53542229D01*
X25967634Y-53332051D01*
X26085579Y-53100572D01*
X26136269Y-52944561D01*
X26175706Y-52886887D01*
X26240065Y-52859689D01*
X26308911Y-52871604D01*
X26360387Y-52918848D01*
X26372131Y-52944562D01*
X26409644Y-53060016D01*
X26506151Y-53249420D01*
X26631090Y-53421386D01*
X26781413Y-53571709D01*
X26953382Y-53696650D01*
X26962146Y-53701116D01*
X27012942Y-53749091D01*
X27029736Y-53816912D01*
X27007198Y-53883047D01*
X26962146Y-53922084D01*
X26953382Y-53926549D01*
X26781413Y-54051490D01*
X26631090Y-54201813D01*
X26506151Y-54373779D01*
X26409644Y-54563185D01*
X26343953Y-54765360D01*
X26331769Y-54842290D01*
X26310700Y-54975313D01*
X26310700Y-55187887D01*
X26343954Y-55397843D01*
X26405620Y-55587632D01*
X26409644Y-55600014D01*
X26506151Y-55789420D01*
X26631090Y-55961386D01*
X26781413Y-56111709D01*
X26953382Y-56236650D01*
X26962146Y-56241116D01*
X27012942Y-56289091D01*
X27029736Y-56356912D01*
X27007198Y-56423047D01*
X26962146Y-56462084D01*
X26953382Y-56466549D01*
X26781413Y-56591490D01*
X26631090Y-56741813D01*
X26506151Y-56913779D01*
X26409644Y-57103185D01*
X26343953Y-57305360D01*
X26310700Y-57515313D01*
X26310700Y-57727886D01*
X26335305Y-57883239D01*
X26343954Y-57937843D01*
X26398401Y-58105414D01*
X26409644Y-58140014D01*
X26506151Y-58329420D01*
X26631090Y-58501386D01*
X26781413Y-58651709D01*
X26953382Y-58776650D01*
X26962146Y-58781116D01*
X27012942Y-58829091D01*
X27029736Y-58896912D01*
X27007198Y-58963047D01*
X26962146Y-59002084D01*
X26953382Y-59006549D01*
X26781413Y-59131490D01*
X26631090Y-59281813D01*
X26506151Y-59453779D01*
X26409644Y-59643185D01*
X26343953Y-59845360D01*
X26332940Y-59914895D01*
X26310700Y-60055313D01*
X26310700Y-60267887D01*
X26343954Y-60477843D01*
X26398401Y-60645414D01*
X26409644Y-60680014D01*
X26506151Y-60869420D01*
X26631090Y-61041386D01*
X26781413Y-61191709D01*
X26953382Y-61316650D01*
X26962146Y-61321116D01*
X27012942Y-61369091D01*
X27029736Y-61436912D01*
X27007198Y-61503047D01*
X26962146Y-61542084D01*
X26953382Y-61546549D01*
X26781413Y-61671490D01*
X26631090Y-61821813D01*
X26506151Y-61993779D01*
X26409644Y-62183185D01*
X26343953Y-62385360D01*
X26316180Y-62560713D01*
X26310700Y-62595313D01*
X26310700Y-62807887D01*
X26343954Y-63017843D01*
X26398401Y-63185414D01*
X26409644Y-63220014D01*
X26506151Y-63409420D01*
X26631090Y-63581386D01*
X26781413Y-63731709D01*
X26953382Y-63856650D01*
X26962146Y-63861116D01*
X27012942Y-63909091D01*
X27029736Y-63976912D01*
X27007198Y-64043047D01*
X26962146Y-64082084D01*
X26953382Y-64086549D01*
X26781413Y-64211490D01*
X26631090Y-64361813D01*
X26506151Y-64533779D01*
X26409644Y-64723185D01*
X26343953Y-64925360D01*
X26316180Y-65100713D01*
X26310700Y-65135313D01*
X26310700Y-65347887D01*
X26343954Y-65557843D01*
X26398401Y-65725414D01*
X26409644Y-65760014D01*
X26506151Y-65949420D01*
X26631090Y-66121386D01*
X26781413Y-66271709D01*
X26953382Y-66396650D01*
X26962146Y-66401116D01*
X27012942Y-66449091D01*
X27029736Y-66516912D01*
X27007198Y-66583047D01*
X26962146Y-66622084D01*
X26953382Y-66626549D01*
X26781413Y-66751490D01*
X26631090Y-66901813D01*
X26506151Y-67073779D01*
X26409644Y-67263185D01*
X26343953Y-67465360D01*
X26316180Y-67640713D01*
X26310700Y-67675313D01*
X26310700Y-67887887D01*
X26343954Y-68097843D01*
X26398401Y-68265414D01*
X26409644Y-68300014D01*
X26506151Y-68489420D01*
X26631090Y-68661386D01*
X26781413Y-68811709D01*
X26953382Y-68936650D01*
X26962146Y-68941116D01*
X27012942Y-68989091D01*
X27029736Y-69056912D01*
X27007198Y-69123047D01*
X26962146Y-69162084D01*
X26953382Y-69166549D01*
X26781413Y-69291490D01*
X26631090Y-69441813D01*
X26506151Y-69613779D01*
X26409644Y-69803185D01*
X26343953Y-70005360D01*
X26316180Y-70180713D01*
X26310700Y-70215313D01*
X26310700Y-70427887D01*
X26343954Y-70637843D01*
X26398401Y-70805414D01*
X26409644Y-70840014D01*
X26506151Y-71029420D01*
X26631090Y-71201386D01*
X26781413Y-71351709D01*
X26953379Y-71476648D01*
X26953381Y-71476649D01*
X26953384Y-71476651D01*
X26962693Y-71481394D01*
X27013490Y-71529366D01*
X27030287Y-71597187D01*
X27007752Y-71663322D01*
X26962702Y-71702362D01*
X26953643Y-71706978D01*
X26781740Y-71831872D01*
X26781735Y-71831876D01*
X26631476Y-71982135D01*
X26631472Y-71982140D01*
X26506579Y-72154042D01*
X26410104Y-72343382D01*
X26344442Y-72545470D01*
X26344442Y-72545473D01*
X26333969Y-72611600D01*
X27228188Y-72611600D01*
X27195275Y-72668607D01*
X27161200Y-72795774D01*
X27161200Y-72927426D01*
X27195275Y-73054593D01*
X27228188Y-73111600D01*
X26333969Y-73111600D01*
X26344442Y-73177726D01*
X26344442Y-73177729D01*
X26410104Y-73379817D01*
X26506579Y-73569157D01*
X26631472Y-73741059D01*
X26631476Y-73741064D01*
X26781735Y-73891323D01*
X26781740Y-73891327D01*
X26953642Y-74016220D01*
X27131834Y-74107015D01*
X27182630Y-74154990D01*
X27199425Y-74222811D01*
X27176887Y-74288946D01*
X27122172Y-74332397D01*
X27075539Y-74341500D01*
X10422446Y-74341500D01*
X10355407Y-74321815D01*
X10309652Y-74269011D01*
X10299708Y-74199853D01*
X10328733Y-74136297D01*
X10384128Y-74099569D01*
X10450217Y-74078095D01*
X10639557Y-73981620D01*
X10811459Y-73856727D01*
X10811464Y-73856723D01*
X10961723Y-73706464D01*
X10961727Y-73706459D01*
X11086620Y-73534557D01*
X11183095Y-73345217D01*
X11248757Y-73143129D01*
X11248757Y-73143126D01*
X11259231Y-73077000D01*
X10365012Y-73077000D01*
X10397925Y-73019993D01*
X10432000Y-72892826D01*
X10432000Y-72761174D01*
X10397925Y-72634007D01*
X10365012Y-72577000D01*
X11259231Y-72577000D01*
X11248757Y-72510873D01*
X11248757Y-72510870D01*
X11183095Y-72308782D01*
X11086620Y-72119442D01*
X10961727Y-71947540D01*
X10961723Y-71947535D01*
X10811464Y-71797276D01*
X10811459Y-71797272D01*
X10639555Y-71672377D01*
X10630500Y-71667763D01*
X10579706Y-71619788D01*
X10562912Y-71551966D01*
X10585451Y-71485832D01*
X10630508Y-71446793D01*
X10639816Y-71442051D01*
X10764169Y-71351704D01*
X10811786Y-71317109D01*
X10811788Y-71317106D01*
X10811792Y-71317104D01*
X10962104Y-71166792D01*
X10962106Y-71166788D01*
X10962109Y-71166786D01*
X11087048Y-70994820D01*
X11087047Y-70994820D01*
X11087051Y-70994816D01*
X11183557Y-70805412D01*
X11249246Y-70603243D01*
X11282500Y-70393287D01*
X11282500Y-70180713D01*
X11249246Y-69970757D01*
X11183557Y-69768588D01*
X11087051Y-69579184D01*
X11087049Y-69579181D01*
X11087048Y-69579179D01*
X10962109Y-69407213D01*
X10811786Y-69256890D01*
X10639820Y-69131951D01*
X10639115Y-69131591D01*
X10631054Y-69127485D01*
X10580259Y-69079512D01*
X10563463Y-69011692D01*
X10585999Y-68945556D01*
X10631054Y-68906515D01*
X10639816Y-68902051D01*
X10661789Y-68886086D01*
X10811786Y-68777109D01*
X10811788Y-68777106D01*
X10811792Y-68777104D01*
X10962104Y-68626792D01*
X10962106Y-68626788D01*
X10962109Y-68626786D01*
X11087048Y-68454820D01*
X11087047Y-68454820D01*
X11087051Y-68454816D01*
X11183557Y-68265412D01*
X11249246Y-68063243D01*
X11282500Y-67853287D01*
X11282500Y-67640713D01*
X11249246Y-67430757D01*
X11183557Y-67228588D01*
X11087051Y-67039184D01*
X11087049Y-67039181D01*
X11087048Y-67039179D01*
X10962109Y-66867213D01*
X10811786Y-66716890D01*
X10639820Y-66591951D01*
X10639115Y-66591591D01*
X10631054Y-66587485D01*
X10580259Y-66539512D01*
X10563463Y-66471692D01*
X10585999Y-66405556D01*
X10631054Y-66366515D01*
X10639816Y-66362051D01*
X10661789Y-66346086D01*
X10811786Y-66237109D01*
X10811788Y-66237106D01*
X10811792Y-66237104D01*
X10962104Y-66086792D01*
X10962106Y-66086788D01*
X10962109Y-66086786D01*
X11087048Y-65914820D01*
X11087047Y-65914820D01*
X11087051Y-65914816D01*
X11183557Y-65725412D01*
X11249246Y-65523243D01*
X11282500Y-65313287D01*
X11282500Y-65100713D01*
X11249246Y-64890757D01*
X11183557Y-64688588D01*
X11087051Y-64499184D01*
X11087049Y-64499181D01*
X11087048Y-64499179D01*
X10962109Y-64327213D01*
X10811786Y-64176890D01*
X10639820Y-64051951D01*
X10639115Y-64051591D01*
X10631054Y-64047485D01*
X10580259Y-63999512D01*
X10563463Y-63931692D01*
X10585999Y-63865556D01*
X10631054Y-63826515D01*
X10639816Y-63822051D01*
X10661789Y-63806086D01*
X10811786Y-63697109D01*
X10811788Y-63697106D01*
X10811792Y-63697104D01*
X10962104Y-63546792D01*
X10962106Y-63546788D01*
X10962109Y-63546786D01*
X11087048Y-63374820D01*
X11087047Y-63374820D01*
X11087051Y-63374816D01*
X11183557Y-63185412D01*
X11249246Y-62983243D01*
X11282500Y-62773287D01*
X11282500Y-62560713D01*
X11249246Y-62350757D01*
X11183557Y-62148588D01*
X11087051Y-61959184D01*
X11087049Y-61959181D01*
X11087048Y-61959179D01*
X10962109Y-61787213D01*
X10811786Y-61636890D01*
X10639820Y-61511951D01*
X10639115Y-61511591D01*
X10631054Y-61507485D01*
X10580259Y-61459512D01*
X10563463Y-61391692D01*
X10585999Y-61325556D01*
X10631054Y-61286515D01*
X10639816Y-61282051D01*
X10661789Y-61266086D01*
X10811786Y-61157109D01*
X10811788Y-61157106D01*
X10811792Y-61157104D01*
X10962104Y-61006792D01*
X10962106Y-61006788D01*
X10962109Y-61006786D01*
X11087048Y-60834820D01*
X11087047Y-60834820D01*
X11087051Y-60834816D01*
X11183557Y-60645412D01*
X11249246Y-60443243D01*
X11282500Y-60233287D01*
X11282500Y-60020713D01*
X11249246Y-59810757D01*
X11183557Y-59608588D01*
X11087051Y-59419184D01*
X11087049Y-59419181D01*
X11087048Y-59419179D01*
X10962109Y-59247213D01*
X10811786Y-59096890D01*
X10639820Y-58971951D01*
X10639115Y-58971591D01*
X10631054Y-58967485D01*
X10626249Y-58962946D01*
X10619914Y-58961060D01*
X10601166Y-58939257D01*
X10580259Y-58919512D01*
X10578669Y-58913095D01*
X10574360Y-58908083D01*
X10570375Y-58879603D01*
X10563463Y-58851692D01*
X10565595Y-58845435D01*
X10564679Y-58838888D01*
X10576722Y-58812778D01*
X10585999Y-58785556D01*
X10591860Y-58779961D01*
X10593945Y-58775443D01*
X10608406Y-58764169D01*
X10620706Y-58752431D01*
X10625737Y-58749224D01*
X10639816Y-58742051D01*
X10811792Y-58617104D01*
X10962104Y-58466792D01*
X11034607Y-58367000D01*
X15138145Y-58367000D01*
X15915999Y-58367000D01*
X15890979Y-58427402D01*
X15866000Y-58552981D01*
X15866000Y-58681019D01*
X15890979Y-58806598D01*
X15915999Y-58867000D01*
X15138145Y-58867000D01*
X15150473Y-58944835D01*
X15150473Y-58944838D01*
X15218567Y-59154410D01*
X15318613Y-59350760D01*
X15448142Y-59529041D01*
X15603958Y-59684857D01*
X15782239Y-59814386D01*
X15978589Y-59914432D01*
X16188163Y-59982526D01*
X16265999Y-59994854D01*
X16266000Y-59994854D01*
X16266000Y-59217001D01*
X16326402Y-59242021D01*
X16451981Y-59267000D01*
X16580019Y-59267000D01*
X16705598Y-59242021D01*
X16766000Y-59217001D01*
X16766000Y-59994854D01*
X16843834Y-59982526D01*
X16843837Y-59982526D01*
X17053410Y-59914432D01*
X17249760Y-59814386D01*
X17428041Y-59684857D01*
X17583857Y-59529041D01*
X17713386Y-59350760D01*
X17813432Y-59154410D01*
X17881526Y-58944838D01*
X17881526Y-58944835D01*
X17893855Y-58867000D01*
X17116001Y-58867000D01*
X17141021Y-58806598D01*
X17166000Y-58681019D01*
X17166000Y-58552981D01*
X17156810Y-58506778D01*
X20195500Y-58506778D01*
X20195500Y-58727222D01*
X20203328Y-58776648D01*
X20229985Y-58944952D01*
X20298103Y-59154603D01*
X20298104Y-59154606D01*
X20398187Y-59351025D01*
X20527752Y-59529358D01*
X20527756Y-59529363D01*
X20683636Y-59685243D01*
X20683641Y-59685247D01*
X20839192Y-59798260D01*
X20861978Y-59814815D01*
X20990375Y-59880237D01*
X21058393Y-59914895D01*
X21058396Y-59914896D01*
X21163221Y-59948955D01*
X21268049Y-59983015D01*
X21485778Y-60017500D01*
X21485779Y-60017500D01*
X21706221Y-60017500D01*
X21706222Y-60017500D01*
X21923951Y-59983015D01*
X22133606Y-59914895D01*
X22330022Y-59814815D01*
X22508365Y-59685242D01*
X22664242Y-59529365D01*
X22793815Y-59351022D01*
X22893895Y-59154606D01*
X22962015Y-58944951D01*
X22996500Y-58727222D01*
X22996500Y-58506778D01*
X22962015Y-58289049D01*
X22904526Y-58112112D01*
X22893896Y-58079396D01*
X22893895Y-58079393D01*
X22849354Y-57991979D01*
X22793815Y-57882978D01*
X22777260Y-57860192D01*
X22664247Y-57704641D01*
X22664243Y-57704636D01*
X22508363Y-57548756D01*
X22508358Y-57548752D01*
X22330025Y-57419187D01*
X22330024Y-57419186D01*
X22330022Y-57419185D01*
X22267096Y-57387122D01*
X22133606Y-57319104D01*
X22133603Y-57319103D01*
X21923952Y-57250985D01*
X21815086Y-57233742D01*
X21706222Y-57216500D01*
X21485778Y-57216500D01*
X21413201Y-57227995D01*
X21268047Y-57250985D01*
X21058396Y-57319103D01*
X21058393Y-57319104D01*
X20861974Y-57419187D01*
X20683641Y-57548752D01*
X20683636Y-57548756D01*
X20527756Y-57704636D01*
X20527752Y-57704641D01*
X20398187Y-57882974D01*
X20298104Y-58079393D01*
X20298103Y-58079396D01*
X20229985Y-58289047D01*
X20207815Y-58429024D01*
X20195500Y-58506778D01*
X17156810Y-58506778D01*
X17141021Y-58427402D01*
X17116001Y-58367000D01*
X17893855Y-58367000D01*
X17881526Y-58289164D01*
X17881526Y-58289161D01*
X17813432Y-58079589D01*
X17713386Y-57883239D01*
X17583857Y-57704958D01*
X17428041Y-57549142D01*
X17249760Y-57419613D01*
X17053410Y-57319567D01*
X16843836Y-57251473D01*
X16766000Y-57239144D01*
X16766000Y-58016998D01*
X16705598Y-57991979D01*
X16580019Y-57967000D01*
X16451981Y-57967000D01*
X16326402Y-57991979D01*
X16266000Y-58016998D01*
X16266000Y-57239144D01*
X16188164Y-57251473D01*
X16188161Y-57251473D01*
X15978589Y-57319567D01*
X15782239Y-57419613D01*
X15603958Y-57549142D01*
X15448142Y-57704958D01*
X15318613Y-57883239D01*
X15218567Y-58079589D01*
X15150473Y-58289161D01*
X15150473Y-58289164D01*
X15138145Y-58367000D01*
X11034607Y-58367000D01*
X11087051Y-58294816D01*
X11183557Y-58105412D01*
X11249246Y-57903243D01*
X11282500Y-57693287D01*
X11282500Y-57480713D01*
X11249246Y-57270757D01*
X11183557Y-57068588D01*
X11087051Y-56879184D01*
X11087049Y-56879181D01*
X11087048Y-56879179D01*
X10962109Y-56707213D01*
X10811786Y-56556890D01*
X10639820Y-56431951D01*
X10639115Y-56431591D01*
X10631054Y-56427485D01*
X10580259Y-56379512D01*
X10563463Y-56311692D01*
X10585999Y-56245556D01*
X10631054Y-56206515D01*
X10639816Y-56202051D01*
X10666331Y-56182787D01*
X10811786Y-56077109D01*
X10811788Y-56077106D01*
X10811792Y-56077104D01*
X10962104Y-55926792D01*
X10962106Y-55926788D01*
X10962109Y-55926786D01*
X11087048Y-55754820D01*
X11087047Y-55754820D01*
X11087051Y-55754816D01*
X11183557Y-55565412D01*
X11249246Y-55363243D01*
X11282500Y-55153287D01*
X11282500Y-54940713D01*
X11249246Y-54730757D01*
X11183557Y-54528588D01*
X11087051Y-54339184D01*
X11087049Y-54339181D01*
X11087048Y-54339179D01*
X10962109Y-54167213D01*
X10811786Y-54016890D01*
X10639820Y-53891951D01*
X10639115Y-53891591D01*
X10631054Y-53887485D01*
X10580259Y-53839512D01*
X10563463Y-53771692D01*
X10585999Y-53705556D01*
X10631054Y-53666515D01*
X10639816Y-53662051D01*
X10666331Y-53642787D01*
X10811786Y-53537109D01*
X10811788Y-53537106D01*
X10811792Y-53537104D01*
X10962104Y-53386792D01*
X10962106Y-53386788D01*
X10962109Y-53386786D01*
X11087048Y-53214820D01*
X11087047Y-53214820D01*
X11087051Y-53214816D01*
X11183557Y-53025412D01*
X11249246Y-52823243D01*
X11282500Y-52613287D01*
X11282500Y-52400713D01*
X11249246Y-52190757D01*
X11183557Y-51988588D01*
X11087051Y-51799184D01*
X11087049Y-51799181D01*
X11087048Y-51799179D01*
X10962109Y-51627213D01*
X10811786Y-51476890D01*
X10639820Y-51351951D01*
X10639115Y-51351591D01*
X10631054Y-51347485D01*
X10580259Y-51299512D01*
X10563463Y-51231692D01*
X10585999Y-51165556D01*
X10631054Y-51126515D01*
X10639816Y-51122051D01*
X10666331Y-51102787D01*
X10811786Y-50997109D01*
X10811788Y-50997106D01*
X10811792Y-50997104D01*
X10962104Y-50846792D01*
X10962106Y-50846788D01*
X10962109Y-50846786D01*
X11016899Y-50771371D01*
X11087051Y-50674816D01*
X11106270Y-50637097D01*
X11905500Y-50637097D01*
X11905500Y-52596902D01*
X11946140Y-52853493D01*
X12026422Y-53100576D01*
X12144368Y-53332054D01*
X12209276Y-53421392D01*
X12297069Y-53542229D01*
X12480771Y-53725931D01*
X12690949Y-53878634D01*
X12797638Y-53932995D01*
X12922423Y-53996577D01*
X12922425Y-53996577D01*
X12922428Y-53996579D01*
X13169507Y-54076860D01*
X13301706Y-54097797D01*
X13426098Y-54117500D01*
X13426103Y-54117500D01*
X13685902Y-54117500D01*
X13799298Y-54099539D01*
X13942493Y-54076860D01*
X14189572Y-53996579D01*
X14421051Y-53878634D01*
X14631229Y-53725931D01*
X14814931Y-53542229D01*
X14967634Y-53332051D01*
X15085579Y-53100572D01*
X15165860Y-52853493D01*
X15188539Y-52710298D01*
X15206500Y-52596902D01*
X15206500Y-50637097D01*
X15182475Y-50485412D01*
X15165860Y-50380507D01*
X15085579Y-50133428D01*
X15085577Y-50133425D01*
X15085577Y-50133423D01*
X15042787Y-50049445D01*
X14967634Y-49901949D01*
X14814931Y-49691771D01*
X14631229Y-49508069D01*
X14421051Y-49355366D01*
X14348764Y-49318534D01*
X14189576Y-49237422D01*
X13942493Y-49157140D01*
X13685902Y-49116500D01*
X13685897Y-49116500D01*
X13426103Y-49116500D01*
X13426098Y-49116500D01*
X13169506Y-49157140D01*
X12922423Y-49237422D01*
X12690945Y-49355368D01*
X12480774Y-49508066D01*
X12480768Y-49508071D01*
X12297071Y-49691768D01*
X12297066Y-49691774D01*
X12144368Y-49901945D01*
X12026422Y-50133423D01*
X11946140Y-50380506D01*
X11905500Y-50637097D01*
X11106270Y-50637097D01*
X11183557Y-50485412D01*
X11249246Y-50283243D01*
X11282500Y-50073287D01*
X11282500Y-49860713D01*
X11249246Y-49650757D01*
X11183557Y-49448588D01*
X11087051Y-49259184D01*
X11087049Y-49259181D01*
X11087048Y-49259179D01*
X10962109Y-49087213D01*
X10811786Y-48936890D01*
X10639820Y-48811951D01*
X10639115Y-48811591D01*
X10631054Y-48807485D01*
X10580259Y-48759512D01*
X10563463Y-48691692D01*
X10585999Y-48625556D01*
X10631054Y-48586515D01*
X10639816Y-48582051D01*
X10666331Y-48562787D01*
X10811786Y-48457109D01*
X10811788Y-48457106D01*
X10811792Y-48457104D01*
X10962104Y-48306792D01*
X10962106Y-48306788D01*
X10962109Y-48306786D01*
X11087048Y-48134820D01*
X11087047Y-48134820D01*
X11087051Y-48134816D01*
X11183557Y-47945412D01*
X11249246Y-47743243D01*
X11282500Y-47533287D01*
X11282500Y-47320713D01*
X11249246Y-47110757D01*
X11183557Y-46908588D01*
X11087051Y-46719184D01*
X11087049Y-46719181D01*
X11087048Y-46719179D01*
X10962109Y-46547213D01*
X10811786Y-46396890D01*
X10639820Y-46271951D01*
X10639115Y-46271591D01*
X10631054Y-46267485D01*
X10580259Y-46219512D01*
X10563463Y-46151692D01*
X10585999Y-46085556D01*
X10631054Y-46046515D01*
X10639816Y-46042051D01*
X10666331Y-46022787D01*
X10811786Y-45917109D01*
X10811788Y-45917106D01*
X10811792Y-45917104D01*
X10962104Y-45766792D01*
X10962106Y-45766788D01*
X10962109Y-45766786D01*
X11087048Y-45594820D01*
X11087047Y-45594820D01*
X11087051Y-45594816D01*
X11183557Y-45405412D01*
X11249246Y-45203243D01*
X11282500Y-44993287D01*
X11282500Y-44780713D01*
X11249246Y-44570757D01*
X11183557Y-44368588D01*
X11087051Y-44179184D01*
X10987246Y-44041813D01*
X10962107Y-44007211D01*
X10961674Y-44006778D01*
X15115500Y-44006778D01*
X15115500Y-44227221D01*
X15149985Y-44444952D01*
X15218103Y-44654603D01*
X15218104Y-44654606D01*
X15275373Y-44767000D01*
X15314423Y-44843639D01*
X15318187Y-44851025D01*
X15447752Y-45029358D01*
X15447756Y-45029363D01*
X15603636Y-45185243D01*
X15603641Y-45185247D01*
X15628411Y-45203243D01*
X15781978Y-45314815D01*
X15910375Y-45380237D01*
X15978393Y-45414895D01*
X15978396Y-45414896D01*
X16083221Y-45448955D01*
X16188049Y-45483015D01*
X16405778Y-45517500D01*
X16405779Y-45517500D01*
X16626221Y-45517500D01*
X16626222Y-45517500D01*
X16843951Y-45483015D01*
X17053606Y-45414895D01*
X17250022Y-45314815D01*
X17428365Y-45185242D01*
X17584242Y-45029365D01*
X17685991Y-44889317D01*
X17741320Y-44846653D01*
X17810933Y-44840674D01*
X17872729Y-44873279D01*
X17886627Y-44889318D01*
X17988142Y-45029041D01*
X18143958Y-45184857D01*
X18322239Y-45314386D01*
X18518589Y-45414432D01*
X18728163Y-45482526D01*
X18805999Y-45494854D01*
X18806000Y-45494854D01*
X18806000Y-44717001D01*
X18866402Y-44742021D01*
X18991981Y-44767000D01*
X19120019Y-44767000D01*
X19245598Y-44742021D01*
X19306000Y-44717001D01*
X19306000Y-45494854D01*
X19383834Y-45482526D01*
X19383837Y-45482526D01*
X19593410Y-45414432D01*
X19789760Y-45314386D01*
X19968041Y-45184857D01*
X20123857Y-45029041D01*
X20123862Y-45029035D01*
X20225372Y-44889319D01*
X20280702Y-44846653D01*
X20350315Y-44840674D01*
X20412110Y-44873279D01*
X20426008Y-44889319D01*
X20527752Y-45029358D01*
X20527756Y-45029363D01*
X20683636Y-45185243D01*
X20683641Y-45185247D01*
X20708411Y-45203243D01*
X20861978Y-45314815D01*
X20990375Y-45380237D01*
X21058393Y-45414895D01*
X21058396Y-45414896D01*
X21163221Y-45448955D01*
X21268049Y-45483015D01*
X21485778Y-45517500D01*
X21485779Y-45517500D01*
X21706221Y-45517500D01*
X21706222Y-45517500D01*
X21923951Y-45483015D01*
X22133606Y-45414895D01*
X22330022Y-45314815D01*
X22508365Y-45185242D01*
X22664242Y-45029365D01*
X22793815Y-44851022D01*
X22893895Y-44654606D01*
X22962015Y-44444951D01*
X22996500Y-44227222D01*
X22996500Y-44006778D01*
X22962015Y-43789049D01*
X22912106Y-43635443D01*
X22893896Y-43579396D01*
X22893895Y-43579393D01*
X22844671Y-43482787D01*
X22793815Y-43382978D01*
X22765990Y-43344680D01*
X22664247Y-43204641D01*
X22664243Y-43204636D01*
X22508365Y-43048758D01*
X22495957Y-43039743D01*
X22401502Y-42971118D01*
X22358838Y-42915790D01*
X22352859Y-42846177D01*
X22385464Y-42784381D01*
X22406177Y-42767812D01*
X22406081Y-42767679D01*
X22408949Y-42765594D01*
X22409612Y-42765065D01*
X22410001Y-42764825D01*
X22410022Y-42764815D01*
X22588365Y-42635242D01*
X22744242Y-42479365D01*
X22873815Y-42301022D01*
X22973895Y-42104606D01*
X23042015Y-41894951D01*
X23076500Y-41677222D01*
X23076500Y-41456778D01*
X23042015Y-41239049D01*
X22984526Y-41062112D01*
X22973896Y-41029396D01*
X22973895Y-41029393D01*
X22929354Y-40941979D01*
X22873815Y-40832978D01*
X22792744Y-40721392D01*
X22744247Y-40654641D01*
X22744243Y-40654636D01*
X22588363Y-40498756D01*
X22588358Y-40498752D01*
X22410025Y-40369187D01*
X22410024Y-40369186D01*
X22410022Y-40369185D01*
X22347096Y-40337122D01*
X22213606Y-40269104D01*
X22213603Y-40269103D01*
X22003952Y-40200985D01*
X21895086Y-40183742D01*
X21786222Y-40166500D01*
X21565778Y-40166500D01*
X21493201Y-40177995D01*
X21348047Y-40200985D01*
X21138396Y-40269103D01*
X21138393Y-40269104D01*
X20941974Y-40369187D01*
X20763641Y-40498752D01*
X20763636Y-40498756D01*
X20607756Y-40654636D01*
X20607752Y-40654641D01*
X20478187Y-40832974D01*
X20378104Y-41029393D01*
X20378103Y-41029396D01*
X20309985Y-41239047D01*
X20275500Y-41456778D01*
X20275500Y-41677221D01*
X20309985Y-41894952D01*
X20378103Y-42104603D01*
X20378104Y-42104606D01*
X20435373Y-42217000D01*
X20465085Y-42275313D01*
X20478187Y-42301025D01*
X20607752Y-42479358D01*
X20607756Y-42479363D01*
X20607758Y-42479365D01*
X20763635Y-42635242D01*
X20870496Y-42712880D01*
X20913161Y-42768209D01*
X20919140Y-42837822D01*
X20886535Y-42899618D01*
X20865823Y-42916189D01*
X20865919Y-42916321D01*
X20863086Y-42918378D01*
X20862414Y-42918917D01*
X20861978Y-42919184D01*
X20683641Y-43048752D01*
X20683636Y-43048756D01*
X20527756Y-43204636D01*
X20426008Y-43344681D01*
X20370678Y-43387346D01*
X20301065Y-43393325D01*
X20239270Y-43360719D01*
X20225372Y-43344680D01*
X20123862Y-43204964D01*
X20123857Y-43204958D01*
X19968041Y-43049142D01*
X19789760Y-42919613D01*
X19593410Y-42819567D01*
X19383836Y-42751473D01*
X19306000Y-42739144D01*
X19306000Y-43516998D01*
X19245598Y-43491979D01*
X19120019Y-43467000D01*
X18991981Y-43467000D01*
X18866402Y-43491979D01*
X18806000Y-43516998D01*
X18806000Y-42739144D01*
X18728164Y-42751473D01*
X18728161Y-42751473D01*
X18518589Y-42819567D01*
X18322239Y-42919613D01*
X18143958Y-43049142D01*
X17988142Y-43204958D01*
X17988142Y-43204959D01*
X17886627Y-43344681D01*
X17831297Y-43387346D01*
X17761683Y-43393325D01*
X17699888Y-43360719D01*
X17685991Y-43344680D01*
X17584247Y-43204641D01*
X17584243Y-43204636D01*
X17428363Y-43048756D01*
X17428358Y-43048752D01*
X17321065Y-42970799D01*
X17278399Y-42915469D01*
X17272420Y-42845856D01*
X17305026Y-42784061D01*
X17325900Y-42767364D01*
X17325818Y-42767251D01*
X17328261Y-42765475D01*
X17329180Y-42764741D01*
X17329770Y-42764379D01*
X17508041Y-42634857D01*
X17663857Y-42479041D01*
X17793386Y-42300760D01*
X17893432Y-42104410D01*
X17961526Y-41894838D01*
X17961526Y-41894835D01*
X17973855Y-41817000D01*
X17196001Y-41817000D01*
X17221021Y-41756598D01*
X17246000Y-41631019D01*
X17246000Y-41502981D01*
X17221021Y-41377402D01*
X17196001Y-41317000D01*
X17973855Y-41317000D01*
X17961526Y-41239164D01*
X17961526Y-41239161D01*
X17893432Y-41029589D01*
X17793386Y-40833239D01*
X17663857Y-40654958D01*
X17508041Y-40499142D01*
X17329760Y-40369613D01*
X17133410Y-40269567D01*
X16923836Y-40201473D01*
X16846000Y-40189144D01*
X16846000Y-40966998D01*
X16785598Y-40941979D01*
X16660019Y-40917000D01*
X16531981Y-40917000D01*
X16406402Y-40941979D01*
X16346000Y-40966998D01*
X16346000Y-40189144D01*
X16268164Y-40201473D01*
X16268161Y-40201473D01*
X16058589Y-40269567D01*
X15862239Y-40369613D01*
X15683958Y-40499142D01*
X15528142Y-40654958D01*
X15398613Y-40833239D01*
X15298567Y-41029589D01*
X15230473Y-41239161D01*
X15230473Y-41239164D01*
X15218145Y-41317000D01*
X15995999Y-41317000D01*
X15970979Y-41377402D01*
X15946000Y-41502981D01*
X15946000Y-41631019D01*
X15970979Y-41756598D01*
X15995999Y-41817000D01*
X15218145Y-41817000D01*
X15230473Y-41894835D01*
X15230473Y-41894838D01*
X15298567Y-42104410D01*
X15398613Y-42300760D01*
X15528142Y-42479041D01*
X15683958Y-42634857D01*
X15683964Y-42634862D01*
X15790957Y-42712597D01*
X15833623Y-42767927D01*
X15839602Y-42837540D01*
X15806996Y-42899335D01*
X15785862Y-42916243D01*
X15785919Y-42916321D01*
X15784258Y-42917527D01*
X15782873Y-42918636D01*
X15781975Y-42919186D01*
X15603641Y-43048752D01*
X15603636Y-43048756D01*
X15447756Y-43204636D01*
X15447752Y-43204641D01*
X15318187Y-43382974D01*
X15218104Y-43579393D01*
X15218103Y-43579396D01*
X15149985Y-43789047D01*
X15115500Y-44006778D01*
X10961674Y-44006778D01*
X10811786Y-43856890D01*
X10639820Y-43731951D01*
X10639115Y-43731591D01*
X10631054Y-43727485D01*
X10580259Y-43679512D01*
X10563463Y-43611692D01*
X10585999Y-43545556D01*
X10631054Y-43506515D01*
X10639816Y-43502051D01*
X10688060Y-43467000D01*
X10811786Y-43377109D01*
X10811788Y-43377106D01*
X10811792Y-43377104D01*
X10962104Y-43226792D01*
X10962106Y-43226788D01*
X10962109Y-43226786D01*
X11087048Y-43054820D01*
X11087047Y-43054820D01*
X11087051Y-43054816D01*
X11183557Y-42865412D01*
X11249246Y-42663243D01*
X11282500Y-42453287D01*
X11282500Y-42240713D01*
X11249246Y-42030757D01*
X11183557Y-41828588D01*
X11087051Y-41639184D01*
X11087049Y-41639181D01*
X11087048Y-41639179D01*
X10962109Y-41467213D01*
X10811786Y-41316890D01*
X10639820Y-41191951D01*
X10639115Y-41191591D01*
X10631054Y-41187485D01*
X10580259Y-41139512D01*
X10563463Y-41071692D01*
X10585999Y-41005556D01*
X10631054Y-40966515D01*
X10639816Y-40962051D01*
X10701824Y-40917000D01*
X10811786Y-40837109D01*
X10811788Y-40837106D01*
X10811792Y-40837104D01*
X10962104Y-40686792D01*
X10962106Y-40686788D01*
X10962109Y-40686786D01*
X11087048Y-40514820D01*
X11087047Y-40514820D01*
X11087051Y-40514816D01*
X11183557Y-40325412D01*
X11249246Y-40123243D01*
X11282500Y-39913287D01*
X11282500Y-39700713D01*
X11249246Y-39490757D01*
X11183557Y-39288588D01*
X11087051Y-39099184D01*
X11087049Y-39099181D01*
X11087048Y-39099179D01*
X10962109Y-38927213D01*
X10811786Y-38776890D01*
X10639820Y-38651951D01*
X10639115Y-38651591D01*
X10631054Y-38647485D01*
X10580259Y-38599512D01*
X10563463Y-38531692D01*
X10585999Y-38465556D01*
X10631054Y-38426515D01*
X10639816Y-38422051D01*
X10661789Y-38406086D01*
X10811786Y-38297109D01*
X10811788Y-38297106D01*
X10811792Y-38297104D01*
X10962104Y-38146792D01*
X10962106Y-38146788D01*
X10962109Y-38146786D01*
X11087048Y-37974820D01*
X11087047Y-37974820D01*
X11087051Y-37974816D01*
X11183557Y-37785412D01*
X11249246Y-37583243D01*
X11282500Y-37373287D01*
X11282500Y-37160713D01*
X11249246Y-36950757D01*
X11183557Y-36748588D01*
X11087051Y-36559184D01*
X11087049Y-36559181D01*
X11087048Y-36559179D01*
X10962109Y-36387213D01*
X10811786Y-36236890D01*
X10639820Y-36111951D01*
X10639115Y-36111591D01*
X10631054Y-36107485D01*
X10580259Y-36059512D01*
X10563463Y-35991692D01*
X10585999Y-35925556D01*
X10631054Y-35886515D01*
X10639816Y-35882051D01*
X10747943Y-35803493D01*
X10811786Y-35757109D01*
X10811788Y-35757106D01*
X10811792Y-35757104D01*
X10962104Y-35606792D01*
X10962106Y-35606788D01*
X10962109Y-35606786D01*
X11087048Y-35434820D01*
X11087047Y-35434820D01*
X11087051Y-35434816D01*
X11183557Y-35245412D01*
X11249246Y-35043243D01*
X11282500Y-34833287D01*
X11282500Y-34620713D01*
X11249246Y-34410757D01*
X11183557Y-34208588D01*
X11087051Y-34019184D01*
X11087049Y-34019181D01*
X11087048Y-34019179D01*
X10962109Y-33847213D01*
X10811788Y-33696892D01*
X10792792Y-33683091D01*
X10792755Y-33683064D01*
X10660666Y-33587097D01*
X11985500Y-33587097D01*
X11985500Y-35546902D01*
X12026140Y-35803493D01*
X12106422Y-36050576D01*
X12224368Y-36282054D01*
X12325905Y-36421808D01*
X12377069Y-36492229D01*
X12560771Y-36675931D01*
X12770949Y-36828634D01*
X12918445Y-36903787D01*
X13002423Y-36946577D01*
X13002425Y-36946577D01*
X13002428Y-36946579D01*
X13249507Y-37026860D01*
X13381706Y-37047797D01*
X13506098Y-37067500D01*
X13506103Y-37067500D01*
X13765902Y-37067500D01*
X13879298Y-37049539D01*
X14022493Y-37026860D01*
X14269572Y-36946579D01*
X14501051Y-36828634D01*
X14711229Y-36675931D01*
X14894931Y-36492229D01*
X15047634Y-36282051D01*
X15165579Y-36050572D01*
X15245860Y-35803493D01*
X15277015Y-35606786D01*
X15286500Y-35546902D01*
X15286500Y-33587097D01*
X15258538Y-33410556D01*
X15245860Y-33330507D01*
X15165579Y-33083428D01*
X15165577Y-33083425D01*
X15165577Y-33083423D01*
X15122787Y-32999445D01*
X15047634Y-32851949D01*
X14894931Y-32641771D01*
X14711229Y-32458069D01*
X14501051Y-32305366D01*
X14428764Y-32268534D01*
X14269576Y-32187422D01*
X14022493Y-32107140D01*
X13765902Y-32066500D01*
X13765897Y-32066500D01*
X13506103Y-32066500D01*
X13506098Y-32066500D01*
X13249506Y-32107140D01*
X13002423Y-32187422D01*
X12770945Y-32305368D01*
X12560774Y-32458066D01*
X12560768Y-32458071D01*
X12377071Y-32641768D01*
X12377066Y-32641774D01*
X12224368Y-32851945D01*
X12106422Y-33083423D01*
X12026140Y-33330506D01*
X11985500Y-33587097D01*
X10660666Y-33587097D01*
X10639816Y-33571949D01*
X10623138Y-33563451D01*
X10615886Y-33558337D01*
X10599461Y-33537647D01*
X10580259Y-33519512D01*
X10578080Y-33510713D01*
X10572444Y-33503614D01*
X10569812Y-33477329D01*
X10563463Y-33451692D01*
X10566386Y-33443113D01*
X10565483Y-33434092D01*
X10577479Y-33410556D01*
X10585999Y-33385556D01*
X10593566Y-33378998D01*
X10597214Y-33371843D01*
X10611330Y-33363606D01*
X10631054Y-33346515D01*
X10639816Y-33342051D01*
X10661789Y-33326086D01*
X10811786Y-33217109D01*
X10811788Y-33217106D01*
X10811792Y-33217104D01*
X10962104Y-33066792D01*
X10962106Y-33066788D01*
X10962109Y-33066786D01*
X11087048Y-32894820D01*
X11087047Y-32894820D01*
X11087051Y-32894816D01*
X11183557Y-32705412D01*
X11249246Y-32503243D01*
X11282500Y-32293287D01*
X11282500Y-32080713D01*
X11249246Y-31870757D01*
X11183557Y-31668588D01*
X11087051Y-31479184D01*
X11087049Y-31479181D01*
X11087048Y-31479179D01*
X10962109Y-31307213D01*
X10811786Y-31156890D01*
X10639820Y-31031951D01*
X10639115Y-31031591D01*
X10631054Y-31027485D01*
X10580259Y-30979512D01*
X10563463Y-30911692D01*
X10585999Y-30845556D01*
X10631054Y-30806515D01*
X10639816Y-30802051D01*
X10661789Y-30786086D01*
X10811786Y-30677109D01*
X10811788Y-30677106D01*
X10811792Y-30677104D01*
X10962104Y-30526792D01*
X10962106Y-30526788D01*
X10962109Y-30526786D01*
X11087048Y-30354820D01*
X11087047Y-30354820D01*
X11087051Y-30354816D01*
X11183557Y-30165412D01*
X11249246Y-29963243D01*
X11282500Y-29753287D01*
X11282500Y-29540713D01*
X11249246Y-29330757D01*
X11183557Y-29128588D01*
X11087051Y-28939184D01*
X11087049Y-28939181D01*
X11087048Y-28939179D01*
X10962109Y-28767213D01*
X10811786Y-28616890D01*
X10639820Y-28491951D01*
X10639115Y-28491591D01*
X10631054Y-28487485D01*
X10580259Y-28439512D01*
X10563463Y-28371692D01*
X10585999Y-28305556D01*
X10631054Y-28266515D01*
X10639816Y-28262051D01*
X10661789Y-28246086D01*
X10811786Y-28137109D01*
X10811788Y-28137106D01*
X10811792Y-28137104D01*
X10962104Y-27986792D01*
X10962106Y-27986788D01*
X10962109Y-27986786D01*
X11087048Y-27814820D01*
X11087047Y-27814820D01*
X11087051Y-27814816D01*
X11183557Y-27625412D01*
X11249246Y-27423243D01*
X11282500Y-27213287D01*
X11282500Y-27000713D01*
X11261658Y-26869124D01*
X11270612Y-26799833D01*
X11315608Y-26746381D01*
X11382360Y-26725741D01*
X11449674Y-26744466D01*
X11471812Y-26762047D01*
X12141139Y-27431374D01*
X12141149Y-27431385D01*
X12145479Y-27435715D01*
X12145480Y-27435716D01*
X12257284Y-27547520D01*
X12257286Y-27547521D01*
X12257290Y-27547524D01*
X12315122Y-27580913D01*
X12315127Y-27580915D01*
X12394209Y-27626574D01*
X12394210Y-27626575D01*
X12394212Y-27626575D01*
X12394215Y-27626577D01*
X12546943Y-27667501D01*
X12546946Y-27667501D01*
X12712653Y-27667501D01*
X12712669Y-27667500D01*
X15254164Y-27667500D01*
X15321203Y-27687185D01*
X15364648Y-27735204D01*
X15398185Y-27801023D01*
X15527752Y-27979358D01*
X15527756Y-27979363D01*
X15683636Y-28135243D01*
X15683641Y-28135247D01*
X15839192Y-28248260D01*
X15861978Y-28264815D01*
X15959472Y-28314491D01*
X16058393Y-28364895D01*
X16058396Y-28364896D01*
X16163221Y-28398955D01*
X16268049Y-28433015D01*
X16485778Y-28467500D01*
X16485779Y-28467500D01*
X16706221Y-28467500D01*
X16706222Y-28467500D01*
X16923951Y-28433015D01*
X17133606Y-28364895D01*
X17330022Y-28264815D01*
X17508365Y-28135242D01*
X17664242Y-27979365D01*
X17765991Y-27839317D01*
X17821320Y-27796653D01*
X17890933Y-27790674D01*
X17952729Y-27823279D01*
X17966627Y-27839318D01*
X18068142Y-27979041D01*
X18223958Y-28134857D01*
X18402239Y-28264386D01*
X18598589Y-28364432D01*
X18808163Y-28432526D01*
X18885999Y-28444854D01*
X18886000Y-28444854D01*
X18886000Y-27667001D01*
X18946402Y-27692021D01*
X19071981Y-27717000D01*
X19200019Y-27717000D01*
X19325598Y-27692021D01*
X19386000Y-27667001D01*
X19386000Y-28444854D01*
X19463834Y-28432526D01*
X19463837Y-28432526D01*
X19673410Y-28364432D01*
X19869760Y-28264386D01*
X20048041Y-28134857D01*
X20203857Y-27979041D01*
X20203862Y-27979035D01*
X20305372Y-27839319D01*
X20360702Y-27796653D01*
X20430315Y-27790674D01*
X20492110Y-27823279D01*
X20506008Y-27839319D01*
X20607752Y-27979358D01*
X20607756Y-27979363D01*
X20763636Y-28135243D01*
X20763641Y-28135247D01*
X20919192Y-28248260D01*
X20941978Y-28264815D01*
X21039472Y-28314491D01*
X21138393Y-28364895D01*
X21138396Y-28364896D01*
X21243221Y-28398955D01*
X21348049Y-28433015D01*
X21565778Y-28467500D01*
X21565779Y-28467500D01*
X21786221Y-28467500D01*
X21786222Y-28467500D01*
X22003951Y-28433015D01*
X22213606Y-28364895D01*
X22410022Y-28264815D01*
X22588365Y-28135242D01*
X22744242Y-27979365D01*
X22873815Y-27801022D01*
X22973895Y-27604606D01*
X23042015Y-27394951D01*
X23076500Y-27177222D01*
X23076500Y-26956778D01*
X23042015Y-26739049D01*
X22973895Y-26529394D01*
X22973895Y-26529393D01*
X22923343Y-26430181D01*
X22873815Y-26332978D01*
X22796969Y-26227208D01*
X22744247Y-26154641D01*
X22744243Y-26154636D01*
X22588363Y-25998756D01*
X22588358Y-25998752D01*
X22410025Y-25869187D01*
X22410024Y-25869186D01*
X22410022Y-25869185D01*
X22346856Y-25837000D01*
X22213606Y-25769104D01*
X22213603Y-25769103D01*
X22003952Y-25700985D01*
X21895086Y-25683742D01*
X21786222Y-25666500D01*
X21565778Y-25666500D01*
X21522232Y-25673397D01*
X21348045Y-25700985D01*
X21277794Y-25723811D01*
X21207953Y-25725806D01*
X21151796Y-25693561D01*
X17123590Y-21665355D01*
X17123588Y-21665352D01*
X17004717Y-21546481D01*
X17004716Y-21546480D01*
X16917904Y-21496360D01*
X16917904Y-21496359D01*
X16917900Y-21496358D01*
X16867785Y-21467423D01*
X16715057Y-21426499D01*
X16556943Y-21426499D01*
X16549347Y-21426499D01*
X16549331Y-21426500D01*
X11217719Y-21426500D01*
X11150680Y-21406815D01*
X11107235Y-21358795D01*
X11087052Y-21319185D01*
X11087051Y-21319184D01*
X10962109Y-21147213D01*
X10811786Y-20996890D01*
X10639820Y-20871951D01*
X10639115Y-20871591D01*
X10631054Y-20867485D01*
X10580259Y-20819512D01*
X10563463Y-20751692D01*
X10585999Y-20685556D01*
X10631054Y-20646515D01*
X10639816Y-20642051D01*
X10661789Y-20626086D01*
X10811786Y-20517109D01*
X10811788Y-20517106D01*
X10811792Y-20517104D01*
X10962104Y-20366792D01*
X10962106Y-20366788D01*
X10962109Y-20366786D01*
X11087048Y-20194820D01*
X11087047Y-20194820D01*
X11087051Y-20194816D01*
X11183557Y-20005412D01*
X11249246Y-19803243D01*
X11282500Y-19593287D01*
X11282500Y-19380713D01*
X11249246Y-19170757D01*
X11183557Y-18968588D01*
X11087051Y-18779184D01*
X11087049Y-18779181D01*
X11087048Y-18779179D01*
X10962109Y-18607213D01*
X10811786Y-18456890D01*
X10639820Y-18331951D01*
X10639115Y-18331591D01*
X10631054Y-18327485D01*
X10580259Y-18279512D01*
X10563463Y-18211692D01*
X10585999Y-18145556D01*
X10631054Y-18106515D01*
X10639816Y-18102051D01*
X10661789Y-18086086D01*
X10811786Y-17977109D01*
X10811788Y-17977106D01*
X10811792Y-17977104D01*
X10962104Y-17826792D01*
X10962106Y-17826788D01*
X10962109Y-17826786D01*
X11087048Y-17654820D01*
X11087047Y-17654820D01*
X11087051Y-17654816D01*
X11183557Y-17465412D01*
X11249246Y-17263243D01*
X11282500Y-17053287D01*
X11282500Y-16840713D01*
X11249246Y-16630757D01*
X11183557Y-16428588D01*
X11087051Y-16239184D01*
X11087049Y-16239181D01*
X11087048Y-16239179D01*
X10962109Y-16067213D01*
X10821674Y-15926778D01*
X11555500Y-15926778D01*
X11555500Y-16147221D01*
X11589985Y-16364952D01*
X11658103Y-16574603D01*
X11658104Y-16574606D01*
X11758187Y-16771025D01*
X11887752Y-16949358D01*
X11887756Y-16949363D01*
X12022712Y-17084319D01*
X12056197Y-17145642D01*
X12051213Y-17215334D01*
X12022712Y-17259681D01*
X11907756Y-17374636D01*
X11907752Y-17374641D01*
X11778187Y-17552974D01*
X11678104Y-17749393D01*
X11678103Y-17749396D01*
X11609985Y-17959047D01*
X11581149Y-18141114D01*
X11575500Y-18176778D01*
X11575500Y-18397222D01*
X11589928Y-18488317D01*
X11609985Y-18614952D01*
X11678103Y-18824603D01*
X11678104Y-18824606D01*
X11746122Y-18958096D01*
X11769096Y-19003185D01*
X11778187Y-19021025D01*
X11907752Y-19199358D01*
X11907756Y-19199363D01*
X12063636Y-19355243D01*
X12063641Y-19355247D01*
X12146316Y-19415313D01*
X12241978Y-19484815D01*
X12370375Y-19550237D01*
X12438393Y-19584895D01*
X12438396Y-19584896D01*
X12464222Y-19593287D01*
X12648049Y-19653015D01*
X12865778Y-19687500D01*
X12865779Y-19687500D01*
X13086221Y-19687500D01*
X13086222Y-19687500D01*
X13303951Y-19653015D01*
X13513606Y-19584895D01*
X13710022Y-19484815D01*
X13888365Y-19355242D01*
X14044242Y-19199365D01*
X14173815Y-19021022D01*
X14273895Y-18824606D01*
X14342015Y-18614951D01*
X14376500Y-18397222D01*
X14376500Y-18176778D01*
X14342015Y-17959049D01*
X14273895Y-17749394D01*
X14273895Y-17749393D01*
X14239237Y-17681375D01*
X14173815Y-17552978D01*
X14117462Y-17475414D01*
X14044247Y-17374641D01*
X14044243Y-17374636D01*
X13909288Y-17239681D01*
X13875803Y-17178358D01*
X13880787Y-17108666D01*
X13909288Y-17064319D01*
X13920321Y-17053286D01*
X14024242Y-16949365D01*
X14153815Y-16771022D01*
X14253895Y-16574606D01*
X14322015Y-16364951D01*
X14356500Y-16147222D01*
X14356500Y-15926778D01*
X14322015Y-15709049D01*
X14253895Y-15499394D01*
X14253895Y-15499393D01*
X14163194Y-15321386D01*
X14153815Y-15302978D01*
X14107772Y-15239605D01*
X14024247Y-15124641D01*
X14024243Y-15124636D01*
X13868363Y-14968756D01*
X13868358Y-14968752D01*
X13690025Y-14839187D01*
X13690024Y-14839186D01*
X13690022Y-14839185D01*
X13616613Y-14801781D01*
X13493606Y-14739104D01*
X13493603Y-14739103D01*
X13283952Y-14670985D01*
X13175086Y-14653742D01*
X13066222Y-14636500D01*
X12845778Y-14636500D01*
X12773201Y-14647995D01*
X12628047Y-14670985D01*
X12418396Y-14739103D01*
X12418393Y-14739104D01*
X12221974Y-14839187D01*
X12043641Y-14968752D01*
X12043636Y-14968756D01*
X11887756Y-15124636D01*
X11887752Y-15124641D01*
X11758187Y-15302974D01*
X11658104Y-15499393D01*
X11658103Y-15499396D01*
X11589985Y-15709047D01*
X11555500Y-15926778D01*
X10821674Y-15926778D01*
X10811786Y-15916890D01*
X10639820Y-15791951D01*
X10639115Y-15791591D01*
X10631054Y-15787485D01*
X10580259Y-15739512D01*
X10563463Y-15671692D01*
X10585999Y-15605556D01*
X10631054Y-15566515D01*
X10639816Y-15562051D01*
X10726449Y-15499109D01*
X10811786Y-15437109D01*
X10811788Y-15437106D01*
X10811792Y-15437104D01*
X10962104Y-15286792D01*
X10962106Y-15286788D01*
X10962109Y-15286786D01*
X11087048Y-15114820D01*
X11087047Y-15114820D01*
X11087051Y-15114816D01*
X11183557Y-14925412D01*
X11249246Y-14723243D01*
X11282500Y-14513287D01*
X11282500Y-14300713D01*
X11249246Y-14090757D01*
X11183557Y-13888588D01*
X11087051Y-13699184D01*
X11087049Y-13699181D01*
X11087048Y-13699179D01*
X10962109Y-13527213D01*
X10811786Y-13376890D01*
X10639820Y-13251951D01*
X10639115Y-13251591D01*
X10631054Y-13247485D01*
X10580259Y-13199512D01*
X10563463Y-13131692D01*
X10585999Y-13065556D01*
X10631054Y-13026515D01*
X10639816Y-13022051D01*
X10661789Y-13006086D01*
X10811786Y-12897109D01*
X10811788Y-12897106D01*
X10811792Y-12897104D01*
X10962104Y-12746792D01*
X10962106Y-12746788D01*
X10962109Y-12746786D01*
X11087048Y-12574820D01*
X11087047Y-12574820D01*
X11087051Y-12574816D01*
X11183557Y-12385412D01*
X11249246Y-12183243D01*
X11282500Y-11973287D01*
X11282500Y-11760713D01*
X11249246Y-11550757D01*
X11183557Y-11348588D01*
X11087051Y-11159184D01*
X11087049Y-11159181D01*
X11087048Y-11159179D01*
X10962109Y-10987213D01*
X10811786Y-10836890D01*
X10639820Y-10711951D01*
X10639115Y-10711591D01*
X10631054Y-10707485D01*
X10580259Y-10659512D01*
X10563463Y-10591692D01*
X10585999Y-10525556D01*
X10631054Y-10486515D01*
X10639816Y-10482051D01*
X10684805Y-10449365D01*
X10811786Y-10357109D01*
X10811788Y-10357106D01*
X10811792Y-10357104D01*
X10962104Y-10206792D01*
X10962106Y-10206788D01*
X10962109Y-10206786D01*
X11087048Y-10034820D01*
X11087047Y-10034820D01*
X11087051Y-10034816D01*
X11183557Y-9845412D01*
X11249246Y-9643243D01*
X11282500Y-9433287D01*
X11282500Y-9220713D01*
X11249246Y-9010757D01*
X11183557Y-8808588D01*
X11087051Y-8619184D01*
X11087049Y-8619181D01*
X11087048Y-8619179D01*
X10962109Y-8447213D01*
X10811786Y-8296890D01*
X10639820Y-8171951D01*
X10637924Y-8170985D01*
X10631054Y-8167485D01*
X10580259Y-8119512D01*
X10563463Y-8051692D01*
X10585999Y-7985556D01*
X10631054Y-7946515D01*
X10639816Y-7942051D01*
X10661789Y-7926086D01*
X10811786Y-7817109D01*
X10811788Y-7817106D01*
X10811792Y-7817104D01*
X10962104Y-7666792D01*
X10973618Y-7650944D01*
X11018903Y-7588615D01*
X11074233Y-7545949D01*
X11119221Y-7537500D01*
X11754373Y-7537500D01*
X11821412Y-7557185D01*
X11842054Y-7573819D01*
X12356634Y-8088399D01*
X12390119Y-8149722D01*
X12385135Y-8219414D01*
X12343263Y-8275347D01*
X12325249Y-8286564D01*
X12221976Y-8339185D01*
X12043641Y-8468752D01*
X12043636Y-8468756D01*
X11887756Y-8624636D01*
X11887752Y-8624641D01*
X11758187Y-8802974D01*
X11658104Y-8999393D01*
X11658103Y-8999396D01*
X11589985Y-9209047D01*
X11555500Y-9426778D01*
X11555500Y-9647221D01*
X11589985Y-9864952D01*
X11658103Y-10074603D01*
X11658104Y-10074606D01*
X11704584Y-10165825D01*
X11751885Y-10258658D01*
X11758187Y-10271025D01*
X11887752Y-10449358D01*
X11887756Y-10449363D01*
X12043636Y-10605243D01*
X12043641Y-10605247D01*
X12165955Y-10694112D01*
X12221978Y-10734815D01*
X12350375Y-10800237D01*
X12418393Y-10834895D01*
X12418396Y-10834896D01*
X12523221Y-10868955D01*
X12628049Y-10903015D01*
X12845778Y-10937500D01*
X12845779Y-10937500D01*
X13066221Y-10937500D01*
X13066222Y-10937500D01*
X13283951Y-10903015D01*
X13493606Y-10834895D01*
X13690022Y-10734815D01*
X13868365Y-10605242D01*
X14024242Y-10449365D01*
X14153815Y-10271022D01*
X14207417Y-10165822D01*
X14255389Y-10115029D01*
X14323210Y-10098234D01*
X14386791Y-10119018D01*
X14511101Y-10202080D01*
X14511114Y-10202087D01*
X14606006Y-10241392D01*
X14647690Y-10258658D01*
X14647694Y-10258658D01*
X14647695Y-10258659D01*
X14785692Y-10286109D01*
X14847602Y-10318494D01*
X14882177Y-10379210D01*
X14885500Y-10407726D01*
X14885500Y-17070918D01*
X14885500Y-17070920D01*
X14885499Y-17070920D01*
X14914340Y-17215907D01*
X14914343Y-17215917D01*
X14970914Y-17352492D01*
X14970915Y-17352494D01*
X14970916Y-17352495D01*
X14985713Y-17374641D01*
X15003812Y-17401727D01*
X15003813Y-17401730D01*
X15053046Y-17475414D01*
X15053052Y-17475421D01*
X16065950Y-18488317D01*
X16099435Y-18549640D01*
X16100742Y-18556598D01*
X16109985Y-18614953D01*
X16178103Y-18824603D01*
X16178104Y-18824606D01*
X16246122Y-18958096D01*
X16269096Y-19003185D01*
X16278187Y-19021025D01*
X16407752Y-19199358D01*
X16407756Y-19199363D01*
X16563636Y-19355243D01*
X16563641Y-19355247D01*
X16646316Y-19415313D01*
X16741978Y-19484815D01*
X16870375Y-19550237D01*
X16938393Y-19584895D01*
X16938396Y-19584896D01*
X16964222Y-19593287D01*
X17148049Y-19653015D01*
X17365778Y-19687500D01*
X17365779Y-19687500D01*
X17586221Y-19687500D01*
X17586222Y-19687500D01*
X17803951Y-19653015D01*
X18013606Y-19584895D01*
X18210022Y-19484815D01*
X18388365Y-19355242D01*
X18544242Y-19199365D01*
X18673815Y-19021022D01*
X18773895Y-18824606D01*
X18842015Y-18614951D01*
X18876500Y-18397222D01*
X18876500Y-18176778D01*
X18842015Y-17959049D01*
X18773895Y-17749394D01*
X18773895Y-17749393D01*
X18739237Y-17681375D01*
X18673815Y-17552978D01*
X18617462Y-17475414D01*
X18544247Y-17374641D01*
X18544243Y-17374636D01*
X18409288Y-17239681D01*
X18375803Y-17178358D01*
X18380787Y-17108666D01*
X18409288Y-17064319D01*
X18420321Y-17053286D01*
X18524242Y-16949365D01*
X18653815Y-16771022D01*
X18753895Y-16574606D01*
X18822015Y-16364951D01*
X18856500Y-16147222D01*
X18856500Y-15926778D01*
X18822015Y-15709049D01*
X18753895Y-15499394D01*
X18753895Y-15499393D01*
X18663194Y-15321386D01*
X18653815Y-15302978D01*
X18607772Y-15239605D01*
X18524247Y-15124641D01*
X18524243Y-15124636D01*
X18368363Y-14968756D01*
X18368358Y-14968752D01*
X18190025Y-14839187D01*
X18190024Y-14839186D01*
X18190022Y-14839185D01*
X18116613Y-14801781D01*
X17993606Y-14739104D01*
X17993603Y-14739103D01*
X17783952Y-14670985D01*
X17675086Y-14653742D01*
X17566222Y-14636500D01*
X17345778Y-14636500D01*
X17273201Y-14647995D01*
X17128047Y-14670985D01*
X16918396Y-14739103D01*
X16918393Y-14739104D01*
X16721974Y-14839187D01*
X16583385Y-14939877D01*
X16517578Y-14963357D01*
X16449525Y-14947531D01*
X16400830Y-14897425D01*
X16386500Y-14839559D01*
X16386500Y-10734440D01*
X16406185Y-10667401D01*
X16458989Y-10621646D01*
X16528147Y-10611702D01*
X16583385Y-10634122D01*
X16721978Y-10734815D01*
X16850375Y-10800237D01*
X16918393Y-10834895D01*
X16918396Y-10834896D01*
X17023221Y-10868955D01*
X17128049Y-10903015D01*
X17345778Y-10937500D01*
X17345779Y-10937500D01*
X17566221Y-10937500D01*
X17566222Y-10937500D01*
X17783951Y-10903015D01*
X17993606Y-10834895D01*
X18190022Y-10734815D01*
X18368365Y-10605242D01*
X18524242Y-10449365D01*
X18653815Y-10271022D01*
X18753895Y-10074606D01*
X18822015Y-9864951D01*
X18856500Y-9647222D01*
X18856500Y-9426778D01*
X18822015Y-9209049D01*
X18815227Y-9188158D01*
X18815225Y-9188153D01*
X19525500Y-9188153D01*
X19525500Y-9345846D01*
X19556261Y-9500489D01*
X19556264Y-9500501D01*
X19616602Y-9646172D01*
X19616609Y-9646185D01*
X19704210Y-9777288D01*
X19704213Y-9777292D01*
X19815707Y-9888786D01*
X19815711Y-9888789D01*
X19946814Y-9976390D01*
X19946827Y-9976397D01*
X20087865Y-10034816D01*
X20092503Y-10036737D01*
X20247153Y-10067499D01*
X20247156Y-10067500D01*
X20247158Y-10067500D01*
X20404844Y-10067500D01*
X20404845Y-10067499D01*
X20559497Y-10036737D01*
X20705179Y-9976394D01*
X20705185Y-9976390D01*
X20836875Y-9888398D01*
X20903553Y-9867520D01*
X20905766Y-9867500D01*
X21656234Y-9867500D01*
X21723273Y-9887185D01*
X21725125Y-9888398D01*
X21856814Y-9976390D01*
X21856827Y-9976397D01*
X21997865Y-10034816D01*
X22002503Y-10036737D01*
X22157153Y-10067499D01*
X22157156Y-10067500D01*
X22157158Y-10067500D01*
X22314844Y-10067500D01*
X22314845Y-10067499D01*
X22469497Y-10036737D01*
X22615179Y-9976394D01*
X22746289Y-9888789D01*
X22857789Y-9777289D01*
X22945394Y-9646179D01*
X23005737Y-9500497D01*
X23036500Y-9345842D01*
X23036500Y-9188158D01*
X23036500Y-9188155D01*
X23036499Y-9188153D01*
X23005737Y-9033503D01*
X22996317Y-9010760D01*
X22945397Y-8887827D01*
X22945390Y-8887814D01*
X22857789Y-8756711D01*
X22857786Y-8756707D01*
X22746292Y-8645213D01*
X22746288Y-8645210D01*
X22615185Y-8557609D01*
X22615172Y-8557602D01*
X22469501Y-8497264D01*
X22469489Y-8497261D01*
X22314845Y-8466500D01*
X22314842Y-8466500D01*
X22157158Y-8466500D01*
X22157155Y-8466500D01*
X22002510Y-8497261D01*
X22002498Y-8497264D01*
X21856827Y-8557602D01*
X21856814Y-8557609D01*
X21725125Y-8645602D01*
X21658447Y-8666480D01*
X21656234Y-8666500D01*
X20905766Y-8666500D01*
X20838727Y-8646815D01*
X20836875Y-8645602D01*
X20705185Y-8557609D01*
X20705172Y-8557602D01*
X20559501Y-8497264D01*
X20559489Y-8497261D01*
X20404845Y-8466500D01*
X20404842Y-8466500D01*
X20247158Y-8466500D01*
X20247155Y-8466500D01*
X20092510Y-8497261D01*
X20092498Y-8497264D01*
X19946827Y-8557602D01*
X19946814Y-8557609D01*
X19815711Y-8645210D01*
X19815707Y-8645213D01*
X19704213Y-8756707D01*
X19704210Y-8756711D01*
X19616609Y-8887814D01*
X19616602Y-8887827D01*
X19556264Y-9033498D01*
X19556261Y-9033510D01*
X19525500Y-9188153D01*
X18815225Y-9188153D01*
X18753896Y-8999396D01*
X18753895Y-8999393D01*
X18697045Y-8887821D01*
X18653815Y-8802978D01*
X18615456Y-8750181D01*
X18524247Y-8624641D01*
X18524243Y-8624636D01*
X18368363Y-8468756D01*
X18368358Y-8468752D01*
X18190025Y-8339187D01*
X18190024Y-8339186D01*
X18190022Y-8339185D01*
X18107026Y-8296896D01*
X17993606Y-8239104D01*
X17993603Y-8239103D01*
X17783952Y-8170985D01*
X17649702Y-8149722D01*
X17566222Y-8136500D01*
X17345778Y-8136500D01*
X17273201Y-8147995D01*
X17128047Y-8170985D01*
X16918396Y-8239103D01*
X16918393Y-8239104D01*
X16721974Y-8339187D01*
X16543641Y-8468752D01*
X16543636Y-8468756D01*
X16387754Y-8624638D01*
X16307295Y-8735384D01*
X16251965Y-8778051D01*
X16206976Y-8786500D01*
X15228832Y-8786500D01*
X15161793Y-8766815D01*
X15141151Y-8750181D01*
X14396550Y-8005580D01*
X14363065Y-7944257D01*
X14368049Y-7874565D01*
X14409921Y-7818632D01*
X14475385Y-7794215D01*
X14484231Y-7793899D01*
X14738871Y-7793899D01*
X14738872Y-7793899D01*
X14798483Y-7787491D01*
X14933331Y-7737196D01*
X15048546Y-7650946D01*
X15134796Y-7535731D01*
X15185091Y-7400883D01*
X15191500Y-7341273D01*
X15191499Y-5895528D01*
X15185091Y-5835917D01*
X15146237Y-5731745D01*
X15134797Y-5701071D01*
X15134793Y-5701064D01*
X15048547Y-5585855D01*
X15048544Y-5585852D01*
X14933335Y-5499606D01*
X14933328Y-5499602D01*
X14798482Y-5449308D01*
X14798483Y-5449308D01*
X14738883Y-5442901D01*
X14738881Y-5442900D01*
X14738873Y-5442900D01*
X14738864Y-5442900D01*
X13293129Y-5442900D01*
X13293123Y-5442901D01*
X13233516Y-5449308D01*
X13098671Y-5499602D01*
X13098664Y-5499606D01*
X12983455Y-5585852D01*
X12983452Y-5585855D01*
X12897206Y-5701064D01*
X12897202Y-5701071D01*
X12846908Y-5835917D01*
X12840501Y-5895516D01*
X12840501Y-5895523D01*
X12840500Y-5895535D01*
X12840500Y-6150167D01*
X12836441Y-6163990D01*
X12837249Y-6178376D01*
X12826793Y-6196846D01*
X12820815Y-6217206D01*
X12809928Y-6226639D01*
X12802830Y-6239179D01*
X12784048Y-6249064D01*
X12768011Y-6262961D01*
X12753750Y-6265011D01*
X12741001Y-6271722D01*
X12719859Y-6269884D01*
X12698853Y-6272905D01*
X12684441Y-6266806D01*
X12671394Y-6265672D01*
X12652343Y-6253222D01*
X12640680Y-6248286D01*
X12634418Y-6243447D01*
X12595019Y-6204048D01*
X12512958Y-6149218D01*
X12472098Y-6121916D01*
X12472097Y-6121915D01*
X12472095Y-6121914D01*
X12472093Y-6121913D01*
X12335520Y-6065343D01*
X12335510Y-6065340D01*
X12190523Y-6036500D01*
X12190521Y-6036500D01*
X11119221Y-6036500D01*
X11052182Y-6016815D01*
X11018903Y-5985385D01*
X10962107Y-5907211D01*
X10848569Y-5793673D01*
X10815084Y-5732350D01*
X10820068Y-5662658D01*
X10861940Y-5606725D01*
X10892915Y-5589810D01*
X11024331Y-5540796D01*
X11139546Y-5454546D01*
X11225796Y-5339331D01*
X11276091Y-5204483D01*
X11278780Y-5179472D01*
X11282473Y-5145130D01*
X11309211Y-5080579D01*
X11366604Y-5040731D01*
X11405004Y-5034389D01*
X26185954Y-4945348D01*
X26253110Y-4964629D01*
G37*
%TD.AperFunction*%
%TA.AperFunction,Conductor*%
G36*
X29970023Y-4942238D02*
G01*
X30016095Y-4994765D01*
X30027613Y-5047141D01*
X29924197Y-74163069D01*
X29921480Y-74172269D01*
X29922749Y-74181780D01*
X29911746Y-74205236D01*
X29904412Y-74230078D01*
X29896363Y-74238033D01*
X29893078Y-74245037D01*
X29866170Y-74267876D01*
X29839556Y-74284599D01*
X29814537Y-74296648D01*
X29735333Y-74324362D01*
X29708264Y-74330540D01*
X29628075Y-74339576D01*
X29617921Y-74340720D01*
X29604038Y-74341500D01*
X28246861Y-74341500D01*
X28179822Y-74321815D01*
X28134067Y-74269011D01*
X28124123Y-74199853D01*
X28153148Y-74136297D01*
X28190566Y-74107015D01*
X28368757Y-74016220D01*
X28540659Y-73891327D01*
X28540664Y-73891323D01*
X28690923Y-73741064D01*
X28690927Y-73741059D01*
X28815820Y-73569157D01*
X28912295Y-73379817D01*
X28977957Y-73177729D01*
X28977957Y-73177726D01*
X28988431Y-73111600D01*
X28094212Y-73111600D01*
X28127125Y-73054593D01*
X28161200Y-72927426D01*
X28161200Y-72795774D01*
X28127125Y-72668607D01*
X28094212Y-72611600D01*
X28988431Y-72611600D01*
X28977957Y-72545473D01*
X28977957Y-72545470D01*
X28912295Y-72343382D01*
X28815820Y-72154042D01*
X28690927Y-71982140D01*
X28690923Y-71982135D01*
X28540664Y-71831876D01*
X28540659Y-71831872D01*
X28368755Y-71706977D01*
X28359700Y-71702363D01*
X28308906Y-71654388D01*
X28292112Y-71586566D01*
X28314651Y-71520432D01*
X28359708Y-71481393D01*
X28369016Y-71476651D01*
X28448207Y-71419115D01*
X28540986Y-71351709D01*
X28540988Y-71351706D01*
X28540992Y-71351704D01*
X28691304Y-71201392D01*
X28691306Y-71201388D01*
X28691309Y-71201386D01*
X28816248Y-71029420D01*
X28816247Y-71029420D01*
X28816251Y-71029416D01*
X28912757Y-70840012D01*
X28978446Y-70637843D01*
X29011700Y-70427887D01*
X29011700Y-70215313D01*
X28978446Y-70005357D01*
X28912757Y-69803188D01*
X28816251Y-69613784D01*
X28816249Y-69613781D01*
X28816248Y-69613779D01*
X28691309Y-69441813D01*
X28540986Y-69291490D01*
X28369020Y-69166551D01*
X28368315Y-69166191D01*
X28360254Y-69162085D01*
X28309459Y-69114112D01*
X28292663Y-69046292D01*
X28315199Y-68980156D01*
X28360254Y-68941115D01*
X28369016Y-68936651D01*
X28416643Y-68902048D01*
X28540986Y-68811709D01*
X28540988Y-68811706D01*
X28540992Y-68811704D01*
X28691304Y-68661392D01*
X28691306Y-68661388D01*
X28691309Y-68661386D01*
X28816248Y-68489420D01*
X28816247Y-68489420D01*
X28816251Y-68489416D01*
X28912757Y-68300012D01*
X28978446Y-68097843D01*
X29011700Y-67887887D01*
X29011700Y-67675313D01*
X28978446Y-67465357D01*
X28912757Y-67263188D01*
X28816251Y-67073784D01*
X28816249Y-67073781D01*
X28816248Y-67073779D01*
X28691309Y-66901813D01*
X28540986Y-66751490D01*
X28369020Y-66626551D01*
X28368315Y-66626191D01*
X28360254Y-66622085D01*
X28309459Y-66574112D01*
X28292663Y-66506292D01*
X28315199Y-66440156D01*
X28360254Y-66401115D01*
X28369016Y-66396651D01*
X28416643Y-66362048D01*
X28540986Y-66271709D01*
X28540988Y-66271706D01*
X28540992Y-66271704D01*
X28691304Y-66121392D01*
X28691306Y-66121388D01*
X28691309Y-66121386D01*
X28816248Y-65949420D01*
X28816247Y-65949420D01*
X28816251Y-65949416D01*
X28912757Y-65760012D01*
X28978446Y-65557843D01*
X29011700Y-65347887D01*
X29011700Y-65135313D01*
X28978446Y-64925357D01*
X28912757Y-64723188D01*
X28816251Y-64533784D01*
X28816249Y-64533781D01*
X28816248Y-64533779D01*
X28691309Y-64361813D01*
X28540986Y-64211490D01*
X28369020Y-64086551D01*
X28368315Y-64086191D01*
X28360254Y-64082085D01*
X28309459Y-64034112D01*
X28292663Y-63966292D01*
X28315199Y-63900156D01*
X28360254Y-63861115D01*
X28369016Y-63856651D01*
X28416643Y-63822048D01*
X28540986Y-63731709D01*
X28540988Y-63731706D01*
X28540992Y-63731704D01*
X28691304Y-63581392D01*
X28691306Y-63581388D01*
X28691309Y-63581386D01*
X28816248Y-63409420D01*
X28816247Y-63409420D01*
X28816251Y-63409416D01*
X28912757Y-63220012D01*
X28978446Y-63017843D01*
X29011700Y-62807887D01*
X29011700Y-62595313D01*
X28978446Y-62385357D01*
X28912757Y-62183188D01*
X28816251Y-61993784D01*
X28816249Y-61993781D01*
X28816248Y-61993779D01*
X28691309Y-61821813D01*
X28540986Y-61671490D01*
X28369020Y-61546551D01*
X28368315Y-61546191D01*
X28360254Y-61542085D01*
X28309459Y-61494112D01*
X28292663Y-61426292D01*
X28315199Y-61360156D01*
X28360254Y-61321115D01*
X28369016Y-61316651D01*
X28416643Y-61282048D01*
X28540986Y-61191709D01*
X28540988Y-61191706D01*
X28540992Y-61191704D01*
X28691304Y-61041392D01*
X28691306Y-61041388D01*
X28691309Y-61041386D01*
X28816248Y-60869420D01*
X28816247Y-60869420D01*
X28816251Y-60869416D01*
X28912757Y-60680012D01*
X28978446Y-60477843D01*
X29011700Y-60267887D01*
X29011700Y-60055313D01*
X28978446Y-59845357D01*
X28912757Y-59643188D01*
X28816251Y-59453784D01*
X28816249Y-59453781D01*
X28816248Y-59453779D01*
X28691309Y-59281813D01*
X28540986Y-59131490D01*
X28369020Y-59006551D01*
X28368315Y-59006191D01*
X28360254Y-59002085D01*
X28309459Y-58954112D01*
X28292663Y-58886292D01*
X28315199Y-58820156D01*
X28360254Y-58781115D01*
X28369016Y-58776651D01*
X28437051Y-58727221D01*
X28540986Y-58651709D01*
X28540988Y-58651706D01*
X28540992Y-58651704D01*
X28691304Y-58501392D01*
X28691306Y-58501388D01*
X28691309Y-58501386D01*
X28814971Y-58331178D01*
X28816251Y-58329416D01*
X28912757Y-58140012D01*
X28978446Y-57937843D01*
X29011700Y-57727887D01*
X29011700Y-57515313D01*
X28978446Y-57305357D01*
X28912757Y-57103188D01*
X28816251Y-56913784D01*
X28816249Y-56913781D01*
X28816248Y-56913779D01*
X28691309Y-56741813D01*
X28540986Y-56591490D01*
X28369020Y-56466551D01*
X28368315Y-56466191D01*
X28360254Y-56462085D01*
X28309459Y-56414112D01*
X28292663Y-56346292D01*
X28315199Y-56280156D01*
X28360254Y-56241115D01*
X28369016Y-56236651D01*
X28443154Y-56182787D01*
X28540986Y-56111709D01*
X28540988Y-56111706D01*
X28540992Y-56111704D01*
X28691304Y-55961392D01*
X28691306Y-55961388D01*
X28691309Y-55961386D01*
X28816248Y-55789420D01*
X28816247Y-55789420D01*
X28816251Y-55789416D01*
X28912757Y-55600012D01*
X28978446Y-55397843D01*
X29011700Y-55187887D01*
X29011700Y-54975313D01*
X28978446Y-54765357D01*
X28912757Y-54563188D01*
X28816251Y-54373784D01*
X28816249Y-54373781D01*
X28816248Y-54373779D01*
X28691309Y-54201813D01*
X28540986Y-54051490D01*
X28369020Y-53926551D01*
X28363925Y-53923955D01*
X28360254Y-53922085D01*
X28309459Y-53874112D01*
X28292663Y-53806292D01*
X28315199Y-53740156D01*
X28360254Y-53701115D01*
X28369016Y-53696651D01*
X28443154Y-53642787D01*
X28540986Y-53571709D01*
X28540988Y-53571706D01*
X28540992Y-53571704D01*
X28691304Y-53421392D01*
X28691306Y-53421388D01*
X28691309Y-53421386D01*
X28816248Y-53249420D01*
X28816247Y-53249420D01*
X28816251Y-53249416D01*
X28912757Y-53060012D01*
X28978446Y-52857843D01*
X29011700Y-52647887D01*
X29011700Y-52435313D01*
X28978446Y-52225357D01*
X28912757Y-52023188D01*
X28816251Y-51833784D01*
X28816249Y-51833781D01*
X28816248Y-51833779D01*
X28691309Y-51661813D01*
X28540986Y-51511490D01*
X28369020Y-51386551D01*
X28368315Y-51386191D01*
X28360254Y-51382085D01*
X28309459Y-51334112D01*
X28292663Y-51266292D01*
X28315199Y-51200156D01*
X28360254Y-51161115D01*
X28369016Y-51156651D01*
X28443154Y-51102787D01*
X28540986Y-51031709D01*
X28540988Y-51031706D01*
X28540992Y-51031704D01*
X28691304Y-50881392D01*
X28691306Y-50881388D01*
X28691309Y-50881386D01*
X28816248Y-50709420D01*
X28816247Y-50709420D01*
X28816251Y-50709416D01*
X28912757Y-50520012D01*
X28978446Y-50317843D01*
X29011700Y-50107887D01*
X29011700Y-49895313D01*
X28978446Y-49685357D01*
X28912757Y-49483188D01*
X28816251Y-49293784D01*
X28816249Y-49293781D01*
X28816248Y-49293779D01*
X28691309Y-49121813D01*
X28540986Y-48971490D01*
X28369020Y-48846551D01*
X28368315Y-48846191D01*
X28360254Y-48842085D01*
X28309459Y-48794112D01*
X28292663Y-48726292D01*
X28315199Y-48660156D01*
X28360254Y-48621115D01*
X28369016Y-48616651D01*
X28443154Y-48562787D01*
X28540986Y-48491709D01*
X28540988Y-48491706D01*
X28540992Y-48491704D01*
X28691304Y-48341392D01*
X28691306Y-48341388D01*
X28691309Y-48341386D01*
X28816248Y-48169420D01*
X28816247Y-48169420D01*
X28816251Y-48169416D01*
X28912757Y-47980012D01*
X28978446Y-47777843D01*
X29011700Y-47567887D01*
X29011700Y-47355313D01*
X28978446Y-47145357D01*
X28912757Y-46943188D01*
X28816251Y-46753784D01*
X28816249Y-46753781D01*
X28816248Y-46753779D01*
X28691309Y-46581813D01*
X28540986Y-46431490D01*
X28369020Y-46306551D01*
X28368315Y-46306191D01*
X28360254Y-46302085D01*
X28309459Y-46254112D01*
X28292663Y-46186292D01*
X28315199Y-46120156D01*
X28360254Y-46081115D01*
X28369016Y-46076651D01*
X28443154Y-46022787D01*
X28540986Y-45951709D01*
X28540988Y-45951706D01*
X28540992Y-45951704D01*
X28691304Y-45801392D01*
X28691306Y-45801388D01*
X28691309Y-45801386D01*
X28816248Y-45629420D01*
X28816247Y-45629420D01*
X28816251Y-45629416D01*
X28912757Y-45440012D01*
X28978446Y-45237843D01*
X29011700Y-45027887D01*
X29011700Y-44815313D01*
X28978446Y-44605357D01*
X28912757Y-44403188D01*
X28816251Y-44213784D01*
X28816249Y-44213781D01*
X28816248Y-44213779D01*
X28691309Y-44041813D01*
X28540986Y-43891490D01*
X28369020Y-43766551D01*
X28368315Y-43766191D01*
X28360254Y-43762085D01*
X28309459Y-43714112D01*
X28292663Y-43646292D01*
X28315199Y-43580156D01*
X28360254Y-43541115D01*
X28369016Y-43536651D01*
X28464883Y-43467000D01*
X28540986Y-43411709D01*
X28540988Y-43411706D01*
X28540992Y-43411704D01*
X28691304Y-43261392D01*
X28691306Y-43261388D01*
X28691309Y-43261386D01*
X28816248Y-43089420D01*
X28816247Y-43089420D01*
X28816251Y-43089416D01*
X28912757Y-42900012D01*
X28978446Y-42697843D01*
X29011700Y-42487887D01*
X29011700Y-42275313D01*
X28978446Y-42065357D01*
X28912757Y-41863188D01*
X28816251Y-41673784D01*
X28816249Y-41673781D01*
X28816248Y-41673779D01*
X28691309Y-41501813D01*
X28540986Y-41351490D01*
X28369020Y-41226551D01*
X28368315Y-41226191D01*
X28360254Y-41222085D01*
X28309459Y-41174112D01*
X28292663Y-41106292D01*
X28315199Y-41040156D01*
X28360254Y-41001115D01*
X28369016Y-40996651D01*
X28478647Y-40917000D01*
X28540986Y-40871709D01*
X28540988Y-40871706D01*
X28540992Y-40871704D01*
X28691304Y-40721392D01*
X28691306Y-40721388D01*
X28691309Y-40721386D01*
X28816248Y-40549420D01*
X28816247Y-40549420D01*
X28816251Y-40549416D01*
X28912757Y-40360012D01*
X28978446Y-40157843D01*
X29011700Y-39947887D01*
X29011700Y-39735313D01*
X28978446Y-39525357D01*
X28912757Y-39323188D01*
X28816251Y-39133784D01*
X28816249Y-39133781D01*
X28816248Y-39133779D01*
X28691309Y-38961813D01*
X28540986Y-38811490D01*
X28369020Y-38686551D01*
X28368315Y-38686191D01*
X28360254Y-38682085D01*
X28309459Y-38634112D01*
X28292663Y-38566292D01*
X28315199Y-38500156D01*
X28360254Y-38461115D01*
X28369016Y-38456651D01*
X28416643Y-38422048D01*
X28540986Y-38331709D01*
X28540988Y-38331706D01*
X28540992Y-38331704D01*
X28691304Y-38181392D01*
X28691306Y-38181388D01*
X28691309Y-38181386D01*
X28816248Y-38009420D01*
X28816247Y-38009420D01*
X28816251Y-38009416D01*
X28912757Y-37820012D01*
X28978446Y-37617843D01*
X29011700Y-37407887D01*
X29011700Y-37195313D01*
X28978446Y-36985357D01*
X28912757Y-36783188D01*
X28816251Y-36593784D01*
X28816249Y-36593781D01*
X28816248Y-36593779D01*
X28691309Y-36421813D01*
X28540986Y-36271490D01*
X28369020Y-36146551D01*
X28368315Y-36146191D01*
X28360254Y-36142085D01*
X28309459Y-36094112D01*
X28292663Y-36026292D01*
X28315199Y-35960156D01*
X28360254Y-35921115D01*
X28369016Y-35916651D01*
X28416643Y-35882048D01*
X28540986Y-35791709D01*
X28540988Y-35791706D01*
X28540992Y-35791704D01*
X28691304Y-35641392D01*
X28691306Y-35641388D01*
X28691309Y-35641386D01*
X28807334Y-35481689D01*
X28816251Y-35469416D01*
X28912757Y-35280012D01*
X28978446Y-35077843D01*
X29011700Y-34867887D01*
X29011700Y-34655313D01*
X28978446Y-34445357D01*
X28912757Y-34243188D01*
X28816251Y-34053784D01*
X28816249Y-34053781D01*
X28816248Y-34053779D01*
X28691309Y-33881813D01*
X28540986Y-33731490D01*
X28369020Y-33606551D01*
X28368315Y-33606191D01*
X28360254Y-33602085D01*
X28309459Y-33554112D01*
X28292663Y-33486292D01*
X28315199Y-33420156D01*
X28360254Y-33381115D01*
X28369016Y-33376651D01*
X28432530Y-33330506D01*
X28540986Y-33251709D01*
X28540988Y-33251706D01*
X28540992Y-33251704D01*
X28691304Y-33101392D01*
X28691306Y-33101388D01*
X28691309Y-33101386D01*
X28816248Y-32929420D01*
X28816247Y-32929420D01*
X28816251Y-32929416D01*
X28912757Y-32740012D01*
X28978446Y-32537843D01*
X29011700Y-32327887D01*
X29011700Y-32115313D01*
X28978446Y-31905357D01*
X28912757Y-31703188D01*
X28816251Y-31513784D01*
X28816249Y-31513781D01*
X28816248Y-31513779D01*
X28691309Y-31341813D01*
X28540986Y-31191490D01*
X28369020Y-31066551D01*
X28368315Y-31066191D01*
X28360254Y-31062085D01*
X28309459Y-31014112D01*
X28292663Y-30946292D01*
X28315199Y-30880156D01*
X28360254Y-30841115D01*
X28369016Y-30836651D01*
X28416643Y-30802048D01*
X28540986Y-30711709D01*
X28540988Y-30711706D01*
X28540992Y-30711704D01*
X28691304Y-30561392D01*
X28691306Y-30561388D01*
X28691309Y-30561386D01*
X28816248Y-30389420D01*
X28816247Y-30389420D01*
X28816251Y-30389416D01*
X28912757Y-30200012D01*
X28978446Y-29997843D01*
X29011700Y-29787887D01*
X29011700Y-29575313D01*
X28978446Y-29365357D01*
X28912757Y-29163188D01*
X28816251Y-28973784D01*
X28816249Y-28973781D01*
X28816248Y-28973779D01*
X28691309Y-28801813D01*
X28540986Y-28651490D01*
X28369020Y-28526551D01*
X28368315Y-28526191D01*
X28360254Y-28522085D01*
X28309459Y-28474112D01*
X28292663Y-28406292D01*
X28315199Y-28340156D01*
X28360254Y-28301115D01*
X28369016Y-28296651D01*
X28416643Y-28262048D01*
X28540986Y-28171709D01*
X28540988Y-28171706D01*
X28540992Y-28171704D01*
X28691304Y-28021392D01*
X28691306Y-28021388D01*
X28691309Y-28021386D01*
X28816248Y-27849420D01*
X28816247Y-27849420D01*
X28816251Y-27849416D01*
X28912757Y-27660012D01*
X28978446Y-27457843D01*
X29011700Y-27247887D01*
X29011700Y-27035313D01*
X28978446Y-26825357D01*
X28912757Y-26623188D01*
X28816251Y-26433784D01*
X28816249Y-26433781D01*
X28816248Y-26433779D01*
X28691309Y-26261813D01*
X28540986Y-26111490D01*
X28369020Y-25986551D01*
X28365607Y-25984812D01*
X28360254Y-25982085D01*
X28309459Y-25934112D01*
X28292663Y-25866292D01*
X28315199Y-25800156D01*
X28360254Y-25761115D01*
X28369016Y-25756651D01*
X28443914Y-25702235D01*
X28540986Y-25631709D01*
X28540988Y-25631706D01*
X28540992Y-25631704D01*
X28691304Y-25481392D01*
X28691306Y-25481388D01*
X28691309Y-25481386D01*
X28816248Y-25309420D01*
X28816247Y-25309420D01*
X28816251Y-25309416D01*
X28912757Y-25120012D01*
X28978446Y-24917843D01*
X29011700Y-24707887D01*
X29011700Y-24495313D01*
X28978446Y-24285357D01*
X28912757Y-24083188D01*
X28816251Y-23893784D01*
X28816249Y-23893781D01*
X28816248Y-23893779D01*
X28691309Y-23721813D01*
X28540986Y-23571490D01*
X28369020Y-23446551D01*
X28368315Y-23446191D01*
X28360254Y-23442085D01*
X28309459Y-23394112D01*
X28292663Y-23326292D01*
X28315199Y-23260156D01*
X28360254Y-23221115D01*
X28369016Y-23216651D01*
X28416643Y-23182048D01*
X28540986Y-23091709D01*
X28540988Y-23091706D01*
X28540992Y-23091704D01*
X28691304Y-22941392D01*
X28691306Y-22941388D01*
X28691309Y-22941386D01*
X28816248Y-22769420D01*
X28816247Y-22769420D01*
X28816251Y-22769416D01*
X28912757Y-22580012D01*
X28978446Y-22377843D01*
X29011700Y-22167887D01*
X29011700Y-21955313D01*
X28978446Y-21745357D01*
X28912757Y-21543188D01*
X28816251Y-21353784D01*
X28816249Y-21353781D01*
X28816248Y-21353779D01*
X28691309Y-21181813D01*
X28540986Y-21031490D01*
X28369020Y-20906551D01*
X28368315Y-20906191D01*
X28360254Y-20902085D01*
X28309459Y-20854112D01*
X28292663Y-20786292D01*
X28315199Y-20720156D01*
X28360254Y-20681115D01*
X28369016Y-20676651D01*
X28416643Y-20642048D01*
X28540986Y-20551709D01*
X28540988Y-20551706D01*
X28540992Y-20551704D01*
X28691304Y-20401392D01*
X28691306Y-20401388D01*
X28691309Y-20401386D01*
X28816248Y-20229420D01*
X28816247Y-20229420D01*
X28816251Y-20229416D01*
X28912757Y-20040012D01*
X28978446Y-19837843D01*
X29011700Y-19627887D01*
X29011700Y-19415313D01*
X28978446Y-19205357D01*
X28912757Y-19003188D01*
X28816251Y-18813784D01*
X28816249Y-18813781D01*
X28816248Y-18813779D01*
X28691309Y-18641813D01*
X28540986Y-18491490D01*
X28369020Y-18366551D01*
X28368315Y-18366191D01*
X28360254Y-18362085D01*
X28309459Y-18314112D01*
X28292663Y-18246292D01*
X28315199Y-18180156D01*
X28360254Y-18141115D01*
X28369016Y-18136651D01*
X28416643Y-18102048D01*
X28540986Y-18011709D01*
X28540988Y-18011706D01*
X28540992Y-18011704D01*
X28691304Y-17861392D01*
X28691306Y-17861388D01*
X28691309Y-17861386D01*
X28816248Y-17689420D01*
X28816247Y-17689420D01*
X28816251Y-17689416D01*
X28912757Y-17500012D01*
X28978446Y-17297843D01*
X29011700Y-17087887D01*
X29011700Y-16875313D01*
X28978446Y-16665357D01*
X28912757Y-16463188D01*
X28816251Y-16273784D01*
X28816249Y-16273781D01*
X28816248Y-16273779D01*
X28691309Y-16101813D01*
X28540986Y-15951490D01*
X28369020Y-15826551D01*
X28368315Y-15826191D01*
X28360254Y-15822085D01*
X28309459Y-15774112D01*
X28292663Y-15706292D01*
X28315199Y-15640156D01*
X28360254Y-15601115D01*
X28369016Y-15596651D01*
X28416643Y-15562048D01*
X28540986Y-15471709D01*
X28540988Y-15471706D01*
X28540992Y-15471704D01*
X28691304Y-15321392D01*
X28691306Y-15321388D01*
X28691309Y-15321386D01*
X28816248Y-15149420D01*
X28816247Y-15149420D01*
X28816251Y-15149416D01*
X28912757Y-14960012D01*
X28978446Y-14757843D01*
X29011700Y-14547887D01*
X29011700Y-14335313D01*
X28978446Y-14125357D01*
X28912757Y-13923188D01*
X28816251Y-13733784D01*
X28816249Y-13733781D01*
X28816248Y-13733779D01*
X28691309Y-13561813D01*
X28540986Y-13411490D01*
X28369020Y-13286551D01*
X28368315Y-13286191D01*
X28360254Y-13282085D01*
X28309459Y-13234112D01*
X28292663Y-13166292D01*
X28315199Y-13100156D01*
X28360254Y-13061115D01*
X28369016Y-13056651D01*
X28416643Y-13022048D01*
X28540986Y-12931709D01*
X28540988Y-12931706D01*
X28540992Y-12931704D01*
X28691304Y-12781392D01*
X28691306Y-12781388D01*
X28691309Y-12781386D01*
X28816248Y-12609420D01*
X28816247Y-12609420D01*
X28816251Y-12609416D01*
X28912757Y-12420012D01*
X28978446Y-12217843D01*
X29011700Y-12007887D01*
X29011700Y-11795313D01*
X28978446Y-11585357D01*
X28912757Y-11383188D01*
X28816251Y-11193784D01*
X28816249Y-11193781D01*
X28816248Y-11193779D01*
X28691309Y-11021813D01*
X28540986Y-10871490D01*
X28369020Y-10746551D01*
X28368315Y-10746191D01*
X28360254Y-10742085D01*
X28309459Y-10694112D01*
X28292663Y-10626292D01*
X28315199Y-10560156D01*
X28360254Y-10521115D01*
X28369016Y-10516651D01*
X28464012Y-10447633D01*
X28540986Y-10391709D01*
X28540988Y-10391706D01*
X28540992Y-10391704D01*
X28691304Y-10241392D01*
X28691306Y-10241388D01*
X28691309Y-10241386D01*
X28816248Y-10069420D01*
X28816247Y-10069420D01*
X28816251Y-10069416D01*
X28912757Y-9880012D01*
X28978446Y-9677843D01*
X29011700Y-9467887D01*
X29011700Y-9255313D01*
X28978446Y-9045357D01*
X28912757Y-8843188D01*
X28816251Y-8653784D01*
X28816249Y-8653781D01*
X28816248Y-8653779D01*
X28691309Y-8481813D01*
X28540986Y-8331490D01*
X28369020Y-8206551D01*
X28368315Y-8206191D01*
X28360254Y-8202085D01*
X28309459Y-8154112D01*
X28292663Y-8086292D01*
X28315199Y-8020156D01*
X28360254Y-7981115D01*
X28369016Y-7976651D01*
X28416643Y-7942048D01*
X28540986Y-7851709D01*
X28540988Y-7851706D01*
X28540992Y-7851704D01*
X28691304Y-7701392D01*
X28691306Y-7701388D01*
X28691309Y-7701386D01*
X28816248Y-7529420D01*
X28816247Y-7529420D01*
X28816251Y-7529416D01*
X28912757Y-7340012D01*
X28978446Y-7137843D01*
X29011700Y-6927887D01*
X29011700Y-6715313D01*
X28978446Y-6505357D01*
X28912757Y-6303188D01*
X28816251Y-6113784D01*
X28816249Y-6113781D01*
X28816248Y-6113779D01*
X28691309Y-5941813D01*
X28577769Y-5828273D01*
X28544284Y-5766950D01*
X28549268Y-5697258D01*
X28591140Y-5641325D01*
X28622115Y-5624410D01*
X28753531Y-5575396D01*
X28868746Y-5489146D01*
X28954996Y-5373931D01*
X29005291Y-5239083D01*
X29011700Y-5179473D01*
X29011699Y-5051578D01*
X29031383Y-4984542D01*
X29084187Y-4938787D01*
X29134949Y-4927583D01*
X29902868Y-4922957D01*
X29970023Y-4942238D01*
G37*
%TD.AperFunction*%
%TA.AperFunction,Conductor*%
G36*
X18960148Y-25209756D02*
G01*
X18993118Y-25233353D01*
X19349681Y-25589916D01*
X19383166Y-25651239D01*
X19386000Y-25677597D01*
X19386000Y-26466998D01*
X19325598Y-26441979D01*
X19200019Y-26417000D01*
X19071981Y-26417000D01*
X18946402Y-26441979D01*
X18886000Y-26466998D01*
X18886000Y-25689144D01*
X18803354Y-25702235D01*
X18803025Y-25700158D01*
X18742007Y-25697061D01*
X18685219Y-25656356D01*
X18659453Y-25591410D01*
X18672444Y-25523712D01*
X18694008Y-25481392D01*
X18773895Y-25324606D01*
X18778829Y-25309420D01*
X18787506Y-25282716D01*
X18826943Y-25225041D01*
X18891301Y-25197842D01*
X18960148Y-25209756D01*
G37*
%TD.AperFunction*%
%TD*%
M02*
