%TF.GenerationSoftware,KiCad,Pcbnew,9.0.0*%
%TF.CreationDate,2025-11-19T14:43:49-05:00*%
%TF.ProjectId,ECE_362_final_proj,4543455f-3336-4325-9f66-696e616c5f70,rev?*%
%TF.SameCoordinates,Original*%
%TF.FileFunction,Profile,NP*%
%FSLAX46Y46*%
G04 Gerber Fmt 4.6, Leading zero omitted, Abs format (unit mm)*
G04 Created by KiCad (PCBNEW 9.0.0) date 2025-11-19 14:43:49*
%MOMM*%
%LPD*%
G01*
G04 APERTURE LIST*
%TA.AperFunction,Profile*%
%ADD10C,0.050000*%
%TD*%
%TA.AperFunction,Profile*%
%ADD11C,0.000000*%
%TD*%
G04 APERTURE END LIST*
D10*
X-58911200Y-74842000D02*
G75*
G02*
X-59911200Y-73842000I-1J999999D01*
G01*
X30611000Y-73842000D02*
G75*
G02*
X29611000Y-74842000I-1000000J0D01*
G01*
X-59911200Y277800D02*
G75*
G02*
X-58911200Y1277800I999999J1D01*
G01*
X29611000Y1277800D02*
G75*
G02*
X30611000Y277800I0J-1000000D01*
G01*
X-59911200Y-73842000D02*
X-59911200Y277800D01*
X29611000Y-74842000D02*
X-58911200Y-74842000D01*
X30611000Y277800D02*
X30611000Y-73842000D01*
X-58911200Y1277800D02*
X29611000Y1277800D01*
D11*
%TA.AperFunction,Profile*%
%TO.C,BT1*%
G36*
X-32947469Y-8025145D02*
G01*
X-32729517Y-8083546D01*
X-32521052Y-8169895D01*
X-32325641Y-8282715D01*
X-32146628Y-8420076D01*
X-31987076Y-8579628D01*
X-31849715Y-8758641D01*
X-31736895Y-8954052D01*
X-31650546Y-9162517D01*
X-31592145Y-9380469D01*
X-31562693Y-9604180D01*
X-31562693Y-9829820D01*
X-31592145Y-10053531D01*
X-31650546Y-10271483D01*
X-31736895Y-10479948D01*
X-31849715Y-10675359D01*
X-31987076Y-10854372D01*
X-32146628Y-11013924D01*
X-32325641Y-11151285D01*
X-32521052Y-11264105D01*
X-32729517Y-11350454D01*
X-32947469Y-11408855D01*
X-33171180Y-11438307D01*
X-33396820Y-11438307D01*
X-33620531Y-11408855D01*
X-33838483Y-11350454D01*
X-34046948Y-11264105D01*
X-34242359Y-11151285D01*
X-34421372Y-11013924D01*
X-34580924Y-10854372D01*
X-34718285Y-10675359D01*
X-34831105Y-10479948D01*
X-34917454Y-10271483D01*
X-34975855Y-10053531D01*
X-35005307Y-9829820D01*
X-35005307Y-9604180D01*
X-34975855Y-9380469D01*
X-34917454Y-9162517D01*
X-34831105Y-8954052D01*
X-34718285Y-8758641D01*
X-34580924Y-8579628D01*
X-34421372Y-8420076D01*
X-34242359Y-8282715D01*
X-34046948Y-8169895D01*
X-33838483Y-8083546D01*
X-33620531Y-8025145D01*
X-33396820Y-7995693D01*
X-33171180Y-7995693D01*
X-32947469Y-8025145D01*
G37*
%TD.AperFunction*%
%TA.AperFunction,Profile*%
G36*
X-2977469Y-12725145D02*
G01*
X-2759517Y-12783546D01*
X-2551052Y-12869895D01*
X-2355641Y-12982715D01*
X-2176628Y-13120076D01*
X-2017076Y-13279628D01*
X-1879715Y-13458641D01*
X-1766895Y-13654052D01*
X-1680546Y-13862517D01*
X-1622145Y-14080469D01*
X-1592693Y-14304180D01*
X-1592693Y-14529820D01*
X-1622145Y-14753531D01*
X-1680546Y-14971483D01*
X-1766895Y-15179948D01*
X-1879715Y-15375359D01*
X-2017076Y-15554372D01*
X-2176628Y-15713924D01*
X-2355641Y-15851285D01*
X-2551052Y-15964105D01*
X-2759517Y-16050454D01*
X-2977469Y-16108855D01*
X-3201180Y-16138307D01*
X-3426820Y-16138307D01*
X-3650531Y-16108855D01*
X-3868483Y-16050454D01*
X-4076948Y-15964105D01*
X-4272359Y-15851285D01*
X-4451372Y-15713924D01*
X-4610924Y-15554372D01*
X-4748285Y-15375359D01*
X-4861105Y-15179948D01*
X-4947454Y-14971483D01*
X-5005855Y-14753531D01*
X-5035307Y-14529820D01*
X-5035307Y-14304180D01*
X-5005855Y-14080469D01*
X-4947454Y-13862517D01*
X-4861105Y-13654052D01*
X-4748285Y-13458641D01*
X-4610924Y-13279628D01*
X-4451372Y-13120076D01*
X-4272359Y-12982715D01*
X-4076948Y-12869895D01*
X-3868483Y-12783546D01*
X-3650531Y-12725145D01*
X-3426820Y-12695693D01*
X-3201180Y-12695693D01*
X-2977469Y-12725145D01*
G37*
%TD.AperFunction*%
%TA.AperFunction,Profile*%
%TO.C,BT2*%
G36*
X-35317469Y-12725145D02*
G01*
X-35099517Y-12783546D01*
X-34891052Y-12869895D01*
X-34695641Y-12982715D01*
X-34516628Y-13120076D01*
X-34357076Y-13279628D01*
X-34219715Y-13458641D01*
X-34106895Y-13654052D01*
X-34020546Y-13862517D01*
X-33962145Y-14080469D01*
X-33932693Y-14304180D01*
X-33932693Y-14529820D01*
X-33962145Y-14753531D01*
X-34020546Y-14971483D01*
X-34106895Y-15179948D01*
X-34219715Y-15375359D01*
X-34357076Y-15554372D01*
X-34516628Y-15713924D01*
X-34695641Y-15851285D01*
X-34891052Y-15964105D01*
X-35099517Y-16050454D01*
X-35317469Y-16108855D01*
X-35541180Y-16138307D01*
X-35766820Y-16138307D01*
X-35990531Y-16108855D01*
X-36208483Y-16050454D01*
X-36416948Y-15964105D01*
X-36612359Y-15851285D01*
X-36791372Y-15713924D01*
X-36950924Y-15554372D01*
X-37088285Y-15375359D01*
X-37201105Y-15179948D01*
X-37287454Y-14971483D01*
X-37345855Y-14753531D01*
X-37375307Y-14529820D01*
X-37375307Y-14304180D01*
X-37345855Y-14080469D01*
X-37287454Y-13862517D01*
X-37201105Y-13654052D01*
X-37088285Y-13458641D01*
X-36950924Y-13279628D01*
X-36791372Y-13120076D01*
X-36612359Y-12982715D01*
X-36416948Y-12869895D01*
X-36208483Y-12783546D01*
X-35990531Y-12725145D01*
X-35766820Y-12695693D01*
X-35541180Y-12695693D01*
X-35317469Y-12725145D01*
G37*
%TD.AperFunction*%
%TA.AperFunction,Profile*%
G36*
X-5347469Y-8025145D02*
G01*
X-5129517Y-8083546D01*
X-4921052Y-8169895D01*
X-4725641Y-8282715D01*
X-4546628Y-8420076D01*
X-4387076Y-8579628D01*
X-4249715Y-8758641D01*
X-4136895Y-8954052D01*
X-4050546Y-9162517D01*
X-3992145Y-9380469D01*
X-3962693Y-9604180D01*
X-3962693Y-9829820D01*
X-3992145Y-10053531D01*
X-4050546Y-10271483D01*
X-4136895Y-10479948D01*
X-4249715Y-10675359D01*
X-4387076Y-10854372D01*
X-4546628Y-11013924D01*
X-4725641Y-11151285D01*
X-4921052Y-11264105D01*
X-5129517Y-11350454D01*
X-5347469Y-11408855D01*
X-5571180Y-11438307D01*
X-5796820Y-11438307D01*
X-6020531Y-11408855D01*
X-6238483Y-11350454D01*
X-6446948Y-11264105D01*
X-6642359Y-11151285D01*
X-6821372Y-11013924D01*
X-6980924Y-10854372D01*
X-7118285Y-10675359D01*
X-7231105Y-10479948D01*
X-7317454Y-10271483D01*
X-7375855Y-10053531D01*
X-7405307Y-9829820D01*
X-7405307Y-9604180D01*
X-7375855Y-9380469D01*
X-7317454Y-9162517D01*
X-7231105Y-8954052D01*
X-7118285Y-8758641D01*
X-6980924Y-8579628D01*
X-6821372Y-8420076D01*
X-6642359Y-8282715D01*
X-6446948Y-8169895D01*
X-6238483Y-8083546D01*
X-6020531Y-8025145D01*
X-5796820Y-7995693D01*
X-5571180Y-7995693D01*
X-5347469Y-8025145D01*
G37*
%TD.AperFunction*%
%TD*%
M02*
