%TF.GenerationSoftware,KiCad,Pcbnew,9.0.0*%
%TF.CreationDate,2025-11-19T14:43:49-05:00*%
%TF.ProjectId,ECE_362_final_proj,4543455f-3336-4325-9f66-696e616c5f70,rev?*%
%TF.SameCoordinates,Original*%
%TF.FileFunction,Paste,Top*%
%TF.FilePolarity,Positive*%
%FSLAX46Y46*%
G04 Gerber Fmt 4.6, Leading zero omitted, Abs format (unit mm)*
G04 Created by KiCad (PCBNEW 9.0.0) date 2025-11-19 14:43:49*
%MOMM*%
%LPD*%
G01*
G04 APERTURE LIST*
G04 Aperture macros list*
%AMRoundRect*
0 Rectangle with rounded corners*
0 $1 Rounding radius*
0 $2 $3 $4 $5 $6 $7 $8 $9 X,Y pos of 4 corners*
0 Add a 4 corners polygon primitive as box body*
4,1,4,$2,$3,$4,$5,$6,$7,$8,$9,$2,$3,0*
0 Add four circle primitives for the rounded corners*
1,1,$1+$1,$2,$3*
1,1,$1+$1,$4,$5*
1,1,$1+$1,$6,$7*
1,1,$1+$1,$8,$9*
0 Add four rect primitives between the rounded corners*
20,1,$1+$1,$2,$3,$4,$5,0*
20,1,$1+$1,$4,$5,$6,$7,0*
20,1,$1+$1,$6,$7,$8,$9,0*
20,1,$1+$1,$8,$9,$2,$3,0*%
G04 Aperture macros list end*
%ADD10RoundRect,0.135000X-0.185000X0.135000X-0.185000X-0.135000X0.185000X-0.135000X0.185000X0.135000X0*%
%ADD11RoundRect,0.135000X0.185000X-0.135000X0.185000X0.135000X-0.185000X0.135000X-0.185000X-0.135000X0*%
%ADD12RoundRect,0.135000X0.135000X0.185000X-0.135000X0.185000X-0.135000X-0.185000X0.135000X-0.185000X0*%
%ADD13RoundRect,0.140000X0.140000X0.170000X-0.140000X0.170000X-0.140000X-0.170000X0.140000X-0.170000X0*%
%ADD14RoundRect,0.135000X-0.135000X-0.185000X0.135000X-0.185000X0.135000X0.185000X-0.135000X0.185000X0*%
%ADD15O,1.967500X0.595000*%
%ADD16RoundRect,0.250000X-0.550000X1.050000X-0.550000X-1.050000X0.550000X-1.050000X0.550000X1.050000X0*%
G04 APERTURE END LIST*
D10*
%TO.C,R2*%
X16076000Y-455375D03*
X16076000Y-1475375D03*
%TD*%
D11*
%TO.C,R10*%
X19146000Y-16047000D03*
X19146000Y-15027000D03*
%TD*%
D12*
%TO.C,R7*%
X20326000Y-9267000D03*
X19306000Y-9267000D03*
%TD*%
D13*
%TO.C,C1*%
X24976000Y-17497000D03*
X24016000Y-17497000D03*
%TD*%
D10*
%TO.C,R5*%
X25286000Y-4487000D03*
X25286000Y-5507000D03*
%TD*%
D12*
%TO.C,R11*%
X15706000Y-16547000D03*
X14686000Y-16547000D03*
%TD*%
D10*
%TO.C,R6*%
X16306000Y-4917000D03*
X16306000Y-5937000D03*
%TD*%
D14*
%TO.C,R1*%
X13986000Y-455375D03*
X15006000Y-455375D03*
%TD*%
D12*
%TO.C,R8*%
X22236000Y-9267000D03*
X21216000Y-9267000D03*
%TD*%
D10*
%TO.C,R4*%
X25286000Y-7027000D03*
X25286000Y-8047000D03*
%TD*%
D15*
%TO.C,U1*%
X18076000Y-427000D03*
X18076000Y-1697000D03*
X18076000Y-2967000D03*
X18076000Y-4237000D03*
X18076000Y-5507000D03*
X18076000Y-6777000D03*
X18076000Y-8047000D03*
X23544000Y-8047000D03*
X23544000Y-6777000D03*
X23544000Y-5507000D03*
X23544000Y-4237000D03*
X23544000Y-2967000D03*
X23544000Y-1697000D03*
X23544000Y-427000D03*
%TD*%
D10*
%TO.C,R3*%
X16076000Y-2435375D03*
X16076000Y-3455375D03*
%TD*%
%TO.C,R9*%
X16326000Y-6777000D03*
X16326000Y-7797000D03*
%TD*%
D16*
%TO.C,C2*%
X23846000Y-11557000D03*
X23846000Y-15157000D03*
%TD*%
M02*
